<svg version="1.1" id="Layer_1" xmlns="http://www.w3.org/2000/svg" xmlns:xlink="http://www.w3.org/1999/xlink" x="0px" y="0px"
	 width="100%" viewBox="0 0 272 240" enable-background="new 0 0 272 240" xml:space="preserve">
<path fill="#000000" opacity="1.000000" stroke="none" 
	d="
M117.447983,188.347443 
	C113.077965,199.674347 108.837402,210.636658 104.596840,221.598953 
	C104.118484,221.665146 103.640137,221.731323 103.161781,221.797501 
	C84.201950,173.471832 65.242111,125.146172 46.282280,76.820503 
	C45.955956,76.888382 45.629635,76.956261 45.303310,77.024132 
	C45.303310,84.240158 45.301323,91.456184 45.303650,98.672211 
	C45.313759,129.999115 45.364239,161.326126 45.287918,192.652817 
	C45.278072,196.694580 45.775200,200.660919 46.594437,204.535477 
	C47.657349,209.562485 49.818886,214.057281 55.562489,215.432632 
	C56.358608,215.623260 57.131828,216.027969 57.123997,217.715912 
	C43.860302,217.715912 30.588203,217.715912 17.316105,217.715912 
	C30.046642,211.945694 29.777086,200.715469 29.979641,189.838242 
	C30.935011,138.534195 29.917940,87.228340 30.026613,35.923180 
	C30.044100,27.667543 30.025614,27.641142 38.112961,27.670475 
	C48.330956,27.707535 45.950813,26.859316 49.122768,34.960018 
	C66.664688,79.759430 84.075157,124.610321 101.549088,169.436386 
	C102.088432,170.819962 102.829231,172.125031 103.526314,173.570786 
	C105.365593,172.653854 105.495682,170.841171 106.049637,169.420944 
	C112.158325,153.759155 118.132607,138.044800 124.280396,122.398552 
	C125.260269,119.904770 125.391960,117.649178 124.463921,115.202545 
	C115.254288,90.922554 106.108070,66.618355 96.832283,42.363708 
	C94.649918,36.657177 91.273727,31.789026 85.179146,28.647076 
	C98.269508,27.598314 111.196259,27.676584 124.036461,27.758133 
	C124.467674,30.361454 122.935280,30.192442 121.968987,30.598684 
	C115.661362,33.250507 113.866875,36.633373 116.216621,43.259926 
	C120.332413,54.866947 124.829353,66.339020 129.185257,77.860580 
	C130.763657,82.035522 132.395538,86.190247 134.210327,90.891197 
	C137.113159,85.834038 138.560852,80.755562 140.425568,75.869453 
	C144.460159,65.297600 148.638870,54.769775 152.268753,44.057941 
	C155.152039,35.549343 153.939163,33.605736 145.605759,30.019342 
	C145.246719,29.864819 145.055908,29.319366 144.279037,28.270721 
	C157.978790,28.270721 171.067001,28.270721 184.300003,28.270721 
	C184.238327,28.832701 184.352173,29.570425 184.113770,29.711067 
	C175.738876,34.651535 172.399521,43.106697 169.124405,51.483578 
	C161.182739,71.796227 153.497391,92.209076 145.562851,112.524567 
	C143.966537,116.611740 143.873734,120.182045 145.576538,124.405365 
	C151.738419,139.688080 157.433990,155.158752 163.318802,170.553406 
	C163.726364,171.619537 164.242371,172.644196 164.850632,174.008133 
	C166.833633,172.834229 167.009445,170.863922 167.626862,169.307892 
	C185.739059,123.659561 203.849136,78.010162 221.774246,32.288273 
	C223.187790,28.682699 225.011581,27.562744 228.715454,27.600481 
	C240.279434,27.718306 240.262756,27.582991 240.265167,39.333290 
	C240.275543,89.656334 240.312607,139.979385 240.287430,190.302414 
	C240.285339,194.486313 240.563553,198.620575 241.356613,202.713394 
	C242.430191,208.253922 243.959030,213.513489 250.306244,215.358475 
	C250.759415,215.490204 251.187546,215.851944 251.517014,216.208633 
	C251.699722,216.406464 251.653702,216.815552 251.822693,217.744843 
	C238.686951,217.744843 225.667618,217.744843 212.554810,217.744843 
	C212.677017,216.989136 212.644653,216.455231 212.788864,216.402298 
	C222.339554,212.896667 224.781647,205.145020 224.790970,196.080643 
	C224.832123,156.099243 224.808762,116.117767 224.121536,75.904549 
	C204.709686,124.425446 185.297821,172.946335 165.885971,221.467224 
	C165.364578,221.465805 164.843201,221.464386 164.321823,221.462967 
	C154.669067,195.777222 145.016327,170.091476 134.962936,143.339615 
	C128.890701,158.932159 123.234062,173.457504 117.447983,188.347443 
z"/>
</svg>