<svg version="1.1" id="Layer_1" xmlns="http://www.w3.org/2000/svg" xmlns:xlink="http://www.w3.org/1999/xlink" x="0px" y="0px"
	 width="100%" viewBox="0 0 801 529" enable-background="new 0 0 801 529" xml:space="preserve">
<path fill="#F2EDE5" opacity="1.000000" stroke="none" 
	d="
M591.000000,530.000000 
	C394.000000,530.000000 197.500000,530.000000 1.000000,530.000000 
	C1.000000,353.666656 1.000000,177.333328 1.000000,1.000000 
	C268.000000,1.000000 535.000000,1.000000 802.000000,1.000000 
	C802.000000,177.333328 802.000000,353.666656 802.000000,530.000000 
	C731.833313,530.000000 661.666687,530.000000 591.000000,530.000000 
M246.914490,55.201107 
	C246.684891,55.512234 246.455292,55.823360 246.205109,56.977573 
	C246.336273,58.652134 246.467438,60.326694 246.374252,62.676945 
	C246.488602,63.129673 246.602966,63.582397 246.453995,64.931061 
	C246.332199,72.612953 246.210419,80.294846 245.487686,88.566383 
	C245.325577,89.369720 245.022995,90.172852 245.021881,90.976418 
	C244.994400,110.778763 244.979355,130.581223 245.045303,150.383392 
	C245.049347,151.599533 245.738419,152.813400 246.350540,154.935532 
	C246.373077,231.274094 246.393417,307.612671 246.430405,383.951233 
	C246.431366,385.934296 246.614304,387.917267 246.407227,390.682007 
	C246.272171,391.787933 246.137100,392.893860 245.696579,394.187225 
	C245.636429,394.289093 245.500458,394.438690 245.529312,394.484528 
	C245.650040,394.676270 245.820206,394.836914 246.196899,394.937408 
	C246.196899,394.937408 246.430954,394.908966 246.215103,395.599030 
	C246.118515,396.068878 246.021912,396.538757 245.639954,397.192841 
	C245.584427,397.290283 245.457657,397.429474 245.485962,397.477783 
	C245.594345,397.662720 245.752579,397.818512 246.037064,398.819214 
	C245.459152,411.288330 241.858170,415.560059 229.786713,417.125031 
	C226.132401,417.180054 227.400040,418.646576 228.809952,420.324249 
	C233.224243,425.576874 233.105545,425.929413 226.572006,427.670135 
	C227.506058,429.889221 229.211029,432.719055 224.897598,432.912781 
	C214.641525,433.373474 204.373184,433.710297 194.108002,433.766754 
	C187.244934,433.804535 180.380478,433.108337 173.513550,433.036194 
	C161.339844,432.908234 149.161987,433.134705 136.989258,432.967377 
	C127.051208,432.830811 117.119438,432.283997 107.182060,432.028778 
	C103.703087,431.939423 100.215324,432.164642 96.732224,432.268036 
	C86.199921,432.580750 75.667831,432.901154 65.135880,433.225525 
	C62.555923,433.304962 59.663109,432.822479 58.401524,436.979706 
	C58.305035,437.971832 58.208549,438.963989 57.955917,440.566162 
	C58.378719,440.866791 58.801521,441.167450 60.096928,441.580261 
	C63.064465,441.715393 66.032005,441.850555 68.983200,442.749573 
	C67.708511,447.516693 66.354996,452.264923 65.207909,457.062561 
	C64.870644,458.473145 64.706261,460.169617 65.171951,461.483673 
	C66.851227,466.222168 64.182114,466.745789 60.520477,467.132080 
	C59.265152,467.264526 58.171032,468.925018 56.078499,470.053589 
	C46.080643,470.047821 36.081940,469.962830 26.085287,470.069672 
	C21.078674,470.123199 17.059261,473.236053 15.630442,477.858398 
	C14.264922,482.275940 15.139305,486.530487 18.901787,489.010193 
	C21.607124,490.793182 25.320118,491.846039 28.588198,491.856964 
	C80.744125,492.031677 132.900787,491.988190 185.057281,491.989441 
	C227.215714,491.990479 269.374176,491.971252 311.532532,492.032745 
	C313.200104,492.035156 315.833923,492.249390 316.385529,493.257751 
	C322.599945,504.617645 333.493774,507.531769 344.773682,507.724335 
	C376.091125,508.258942 407.427673,508.154724 438.748596,507.720764 
	C448.353943,507.587677 457.827728,504.798889 463.745758,496.347443 
	C466.199951,492.842712 468.498535,491.901245 472.466217,491.905518 
	C566.114502,492.006256 659.762878,491.980804 753.411255,491.972656 
	C761.899231,491.971924 767.118042,487.644806 766.985718,480.768036 
	C766.857178,474.087860 761.793274,470.082672 753.474060,470.038818 
	C746.313843,470.001068 739.153809,469.925934 731.823059,469.187500 
	C729.927551,467.374512 728.252258,467.112305 726.117920,470.041595 
	C723.410095,469.984222 720.702332,469.926849 717.973511,469.087311 
	C717.107483,466.132233 717.653625,462.486664 714.298218,460.226257 
	C715.194519,459.898071 716.090881,459.569885 717.920532,458.899933 
	C714.213684,457.937134 711.611511,457.261261 708.966980,455.886353 
	C704.717407,449.694611 704.741516,449.722137 710.790710,444.424042 
	C711.440796,443.854706 711.608032,442.734039 712.731995,441.635925 
	C713.488525,441.713531 714.244995,441.791168 715.035156,442.691650 
	C717.290283,447.170258 720.814209,444.671509 723.835938,444.115021 
	C724.975952,443.905090 726.904663,442.277863 726.767273,441.865814 
	C726.292358,440.441711 725.065796,439.268280 723.982788,437.529877 
	C723.982788,437.529877 723.985535,437.039154 723.955444,436.214691 
	C723.057312,435.482361 722.209534,434.195312 721.252869,434.108643 
	C715.489746,433.586334 709.704651,433.128754 703.921204,433.045349 
	C693.026978,432.888275 682.128052,433.080872 671.232910,432.959747 
	C666.949402,432.912170 662.654541,432.024170 658.393616,432.203674 
	C650.484619,432.536865 642.606323,433.674194 634.697815,433.924072 
	C624.731934,434.238953 614.746704,433.904724 604.774597,434.097290 
	C603.170227,434.128296 601.590759,435.443970 599.162231,436.408600 
	C597.444397,436.543549 595.726501,436.678528 593.356567,436.540771 
	C592.904175,436.420502 592.451721,436.300232 591.859802,435.429230 
	C588.805298,434.415894 585.486084,430.138275 582.268860,436.384033 
	C581.512634,436.302673 580.756409,436.221313 579.816101,435.338806 
	C578.171570,434.892609 576.549500,434.198029 574.878296,434.047394 
	C570.107056,433.617340 565.319031,433.335266 560.531860,433.128632 
	C552.080750,432.763733 543.620239,432.223206 535.175659,432.385254 
	C533.083801,432.425446 531.038269,434.878052 528.228882,436.490967 
	C526.152039,436.394409 524.075195,436.297852 521.897705,435.479706 
	C518.460327,430.104523 512.831055,433.252594 508.305115,432.147980 
	C505.283478,431.410492 501.838623,432.530975 501.934753,427.481812 
	C502.029694,422.491577 504.947052,421.843536 508.899384,421.978424 
	C514.661682,422.175140 520.446167,422.017944 526.181519,422.492004 
	C527.526428,422.603210 528.720154,424.630280 529.969360,425.791046 
	C531.560913,427.269836 533.040466,429.899719 534.739136,430.045776 
	C540.622742,430.551666 546.622925,430.632172 552.499329,430.059448 
	C560.096375,429.319031 567.432251,424.923309 575.331238,428.900879 
	C576.398315,429.438202 577.963623,429.050964 579.293701,428.990784 
	C593.708313,428.338837 608.116943,427.415497 622.538452,427.126862 
	C628.103882,427.015503 633.692505,428.850250 639.279724,428.907562 
	C661.109863,429.131592 682.948730,429.248108 704.772034,428.802734 
	C709.501038,428.706207 714.179077,426.115479 718.880615,424.673553 
	C718.878296,423.957855 718.875977,423.242188 718.873596,422.526489 
	C715.490051,421.684601 712.140442,420.641388 708.712463,420.062317 
	C705.789001,419.568451 702.594727,420.175812 699.838196,419.297760 
	C693.427002,417.255585 687.433838,417.507172 681.513672,420.708893 
	C680.370667,421.327057 679.036926,421.859711 677.763794,421.929016 
	C664.020569,422.677307 650.268738,423.926575 636.525391,423.856049 
	C616.942139,423.755585 597.364380,422.652344 577.783020,422.014465 
	C574.619873,421.911438 571.432495,421.787231 568.288391,422.052460 
	C564.124512,422.403748 560.685059,421.616669 558.874390,417.393951 
	C557.335510,417.926331 556.054810,418.369415 553.814026,419.144653 
	C555.983521,409.654327 544.180908,414.447998 543.791382,408.329407 
	C546.281738,406.461456 549.667419,404.334473 549.591248,402.339722 
	C549.315063,395.107422 547.904602,387.915405 546.828369,380.722260 
	C546.740479,380.134430 545.944336,379.652588 544.484863,377.993073 
	C544.263733,383.835968 541.245300,388.210236 545.078979,392.783936 
	C545.820312,393.668365 546.176331,395.403015 545.868652,396.511993 
	C545.440186,398.056152 544.218567,399.380188 543.336426,400.798462 
	C541.908386,399.621124 539.525940,398.647675 539.223145,397.230011 
	C538.108887,392.013245 537.078552,386.647949 537.089539,381.340759 
	C537.302063,278.531372 537.676880,175.722321 537.964355,72.913055 
	C537.976379,68.616249 537.635254,64.297394 537.115906,60.030540 
	C536.908142,58.324020 535.576660,55.272194 535.091003,55.337013 
	C532.936890,55.624523 530.271729,56.281910 528.969543,57.809677 
	C526.787292,60.369865 525.696472,63.824219 523.799255,66.670937 
	C519.576965,73.006386 515.067139,79.149696 510.814636,85.465683 
	C507.631683,90.193123 504.772736,95.139069 501.579315,99.859039 
	C497.622589,105.707153 493.338806,111.335579 489.432678,117.215919 
	C483.963654,125.448952 478.885712,133.944962 473.315002,142.106247 
	C468.687195,148.886154 463.395142,155.212051 458.753082,161.982956 
	C453.858551,169.122055 449.466949,176.603867 444.699036,183.832672 
	C441.698914,188.381210 438.213898,192.615662 435.310272,197.220459 
	C432.672089,201.404282 431.289398,206.614212 428.009674,210.112045 
	C420.308472,218.325287 415.496429,228.387482 408.999817,237.327393 
	C404.249878,243.863693 398.698242,249.816071 393.542297,256.060364 
	C392.930023,256.801910 392.265778,257.696472 392.122864,258.598877 
	C390.867889,266.521912 385.981689,272.361969 381.220703,278.360382 
	C377.634277,282.878998 374.205536,287.564423 371.152191,292.453827 
	C367.432159,298.410767 364.893768,305.229980 360.563446,310.653564 
	C353.298218,319.753052 344.221924,327.471100 342.019989,339.837738 
	C341.677002,341.763824 338.910278,343.149231 338.134064,345.126160 
	C334.722687,353.813904 331.722687,362.662231 328.386536,371.380829 
	C326.524017,376.248291 323.901672,380.850189 322.325378,385.796021 
	C320.049744,392.936096 318.413208,400.279846 316.390442,407.968292 
	C321.590820,407.792938 324.114166,405.016083 326.007019,401.626678 
	C326.366699,400.982697 325.359039,399.575134 325.174957,398.062622 
	C325.508575,397.699768 325.842224,397.336945 327.006500,397.020508 
	C329.942902,398.302460 332.967346,397.988739 334.517303,395.306641 
	C337.682617,389.829132 342.546661,386.448395 347.410278,382.793579 
	C349.693115,381.078156 352.277588,378.339661 349.724701,374.384583 
	C349.724701,374.384583 349.791077,374.068878 350.585052,373.949707 
	C353.009796,372.916016 357.012054,373.482330 355.866119,368.891968 
	C355.866119,368.891968 355.752899,368.868744 356.289062,368.667358 
	C356.493927,368.355621 356.698761,368.043854 357.096527,367.218506 
	C357.667572,366.787750 358.238647,366.356995 359.644012,365.965820 
	C363.093506,366.051086 367.656769,368.157654 367.437958,361.592407 
	C367.422729,361.134979 368.249390,360.276947 368.741211,360.232483 
	C373.924225,359.764343 376.200897,356.970764 375.794586,351.838806 
	C375.774414,351.584198 376.159485,351.302185 376.345428,351.025909 
	C381.570343,343.262878 386.771912,335.483856 392.072601,327.772980 
	C392.389771,327.311584 393.498047,327.394012 394.783325,327.097748 
	C394.593262,329.832123 394.434631,332.114166 394.276001,334.396210 
	C394.647827,334.584991 395.019653,334.773773 395.391449,334.962555 
	C398.662994,330.825439 402.309662,326.925720 405.114990,322.493500 
	C408.967987,316.405884 411.119415,309.321716 416.867828,304.303833 
	C418.254150,303.093689 418.835999,299.151306 417.925629,297.479492 
	C415.698456,293.389893 415.718262,291.957275 420.585114,289.434723 
	C420.194122,291.601288 419.837189,293.579193 419.365936,296.190613 
	C425.387177,295.119659 427.239624,291.209839 428.864502,286.296021 
	C427.022491,286.296021 425.665375,286.296021 422.679688,286.296021 
	C427.566986,278.486725 431.844696,271.651520 436.122406,264.816315 
	C436.569702,265.047180 437.016968,265.278015 437.464233,265.508881 
	C437.464233,267.493591 437.464233,269.478302 437.464233,272.228882 
	C438.983765,271.071045 440.148804,270.582428 440.673553,269.709076 
	C442.284485,267.028046 443.397949,264.027069 445.155182,261.458649 
	C452.305573,251.007599 459.517090,240.593704 466.967102,230.356049 
	C468.538452,228.196686 471.278412,225.311035 473.363800,225.402664 
	C479.249573,225.661255 480.520905,222.034134 482.204956,217.872421 
	C482.810791,216.375320 485.542419,214.176422 486.050385,214.469620 
	C488.362976,215.804443 492.240356,215.686737 492.065796,220.010117 
	C491.967133,222.453842 493.022980,224.971588 492.774658,227.374969 
	C492.459198,230.428284 491.449097,233.429550 490.558350,236.399231 
	C489.116089,241.207611 486.258698,245.957443 486.203796,250.757233 
	C485.819000,284.400757 486.123291,318.051575 485.908783,351.698151 
	C485.858398,359.602295 484.312958,367.490723 484.124359,375.402344 
	C483.997375,380.730133 483.995178,386.468262 489.972870,389.623169 
	C490.879425,390.101624 491.607208,391.772522 491.626984,392.905670 
	C491.672668,395.526489 490.784790,398.207581 491.081177,400.771118 
	C491.773529,406.758942 489.407013,410.571198 484.055328,413.076904 
	C482.433411,413.836273 481.283020,415.602661 479.162537,416.989594 
	C476.116577,422.712189 470.762024,422.136658 465.549622,422.010620 
	C463.051544,421.950195 460.545044,421.894836 458.052429,422.026733 
	C453.264618,422.280060 448.075256,427.767242 448.949921,432.008484 
	C457.331146,427.824463 465.815796,426.205780 474.421509,431.860748 
	C468.226105,433.123688 461.962585,434.067139 455.740082,433.847626 
	C450.266693,433.654510 447.528656,437.303345 443.593689,440.608154 
	C442.741119,440.781982 441.888550,440.955811 440.901367,440.428040 
	C439.924103,439.389984 439.024780,438.260071 437.944794,437.342957 
	C437.085419,436.613129 436.005371,436.143127 435.023285,435.557739 
	C434.528717,436.738739 433.828339,437.880829 433.595703,439.111328 
	C433.347076,440.426422 433.539642,441.824951 433.539642,441.995819 
	C427.261505,444.044464 421.911560,445.790222 415.301666,447.947083 
	C417.294250,445.475952 419.072571,444.217865 419.339264,442.695007 
	C419.657684,440.876770 418.682007,438.831879 418.266907,436.885162 
	C416.899170,437.381439 415.008026,437.471771 414.253967,438.444000 
	C410.943085,442.712921 409.066315,441.066040 407.031921,437.315430 
	C406.359741,436.076233 404.690338,435.377930 403.476898,434.432343 
	C402.653229,435.935944 401.679413,437.381378 401.065552,438.966248 
	C400.729614,439.833710 401.064728,440.941467 400.989899,441.932770 
	C400.500580,448.413910 402.540985,455.190155 398.291046,461.272797 
	C397.530060,462.362000 398.357391,466.177704 398.772858,466.231049 
	C405.637665,467.112549 404.076752,470.867004 402.147095,475.002472 
	C401.872284,475.591431 402.741974,476.643311 402.580841,477.369812 
	C402.118103,479.456238 401.480103,481.515442 400.747711,483.525909 
	C400.328461,484.676849 399.591400,485.712036 398.087708,486.955536 
	C394.392731,486.898895 390.697784,486.842285 387.006012,486.057617 
	C389.005676,484.094086 391.005371,482.130554 393.577606,479.608276 
	C393.751740,477.739166 393.925903,475.870056 394.861389,473.770050 
	C395.213715,473.244324 395.839172,472.737915 395.877930,472.190033 
	C396.626373,461.615784 397.655914,451.044403 397.891510,440.456085 
	C398.086853,431.675446 397.373322,422.871613 396.975952,414.081970 
	C396.791473,410.001984 387.698792,404.424194 384.015045,406.351685 
	C382.750885,407.013153 381.183960,409.854980 381.613220,410.544983 
	C384.353699,414.950134 381.867981,418.465179 380.378448,422.264160 
	C378.760376,426.390961 377.418671,430.625854 375.813904,434.758240 
	C375.419067,435.775024 374.644806,436.846161 373.744843,437.428467 
	C370.633881,439.441254 367.390503,441.249329 363.398743,443.607208 
	C367.416199,446.402374 371.023163,449.404938 367.960022,454.932831 
	C367.073395,454.209442 365.876190,453.654388 365.912537,453.197479 
	C366.305817,448.254608 363.356628,447.663269 359.487030,447.825867 
	C358.658081,447.860687 357.749725,446.982910 356.943420,446.430054 
	C348.532349,440.663025 339.344666,436.766296 329.377380,434.564880 
	C326.607666,433.953156 324.001862,432.599243 321.320831,431.585815 
	C324.358673,430.440186 326.916534,430.048096 329.470184,430.074005 
	C331.745605,430.097046 334.009796,430.672546 336.290985,430.837585 
	C338.403717,430.990417 340.532410,430.922516 342.654022,430.951782 
	C341.705811,428.481201 341.111053,425.769928 339.661377,423.640778 
	C338.928680,422.564606 336.663971,422.487701 335.066132,422.054108 
	C332.305145,421.304932 329.524048,420.629883 326.205292,419.784668 
	C325.314301,420.261566 323.792419,421.693787 322.152191,421.845337 
	C315.595978,422.451294 308.212463,425.947113 303.862701,417.229126 
	C303.199005,415.898865 301.544159,414.864105 300.118927,414.148376 
	C294.858276,411.506714 290.883881,408.429413 295.078064,402.030884 
	C289.519104,399.717987 289.059937,399.003296 288.998810,393.281128 
	C288.668152,362.325684 288.093628,331.370361 288.073303,300.414703 
	C288.055847,273.792114 288.550842,247.166656 289.093994,220.548065 
	C289.216888,214.524918 290.476868,208.524963 291.236725,202.324051 
	C304.149078,208.559998 309.730957,212.931931 313.376434,227.018402 
	C313.493835,227.472092 313.732056,227.965195 314.064667,228.281418 
	C316.956451,231.030746 320.216919,233.472534 322.708038,236.541290 
	C325.383575,239.837234 327.713470,243.538437 329.527069,247.377945 
	C331.807922,252.206589 338.449341,254.192322 338.014130,260.679932 
	C338.009583,260.747894 338.328278,260.800934 338.430542,260.918121 
	C340.420898,263.198639 342.488831,265.419006 344.357697,267.795715 
	C345.983612,269.863525 347.431183,272.078217 348.865845,274.287537 
	C349.985504,276.011780 351.361084,277.711456 351.920990,279.627228 
	C352.994873,283.301910 354.335571,285.260284 358.674774,281.963318 
	C366.096863,271.182434 373.518951,260.401520 380.966614,249.583511 
	C366.129425,228.042068 351.433807,206.653275 336.682617,185.302856 
	C317.678284,157.796448 298.629395,130.320786 279.315033,102.172401 
	C276.146851,97.630829 272.978668,93.089256 269.756897,88.303604 
	C269.756897,88.303604 269.567566,88.140495 269.297363,87.570480 
	C267.182129,84.485153 265.116669,81.364243 262.940796,78.322296 
	C259.031555,72.857086 255.056061,67.439278 251.168518,61.301155 
	C249.843018,59.430992 248.517517,57.560825 246.914490,55.201107 
M154.397995,430.000000 
	C160.597244,429.610596 166.802322,429.294769 172.993607,428.804810 
	C176.843445,428.500153 181.080536,428.612396 182.348297,422.837585 
	C175.770233,422.837585 169.454514,423.161987 163.184341,422.765594 
	C152.323074,422.079010 141.500290,420.793396 130.640869,420.064026 
	C125.177147,419.697052 119.668343,419.980835 114.180077,420.005188 
	C108.195297,420.031738 102.210754,420.107178 96.225998,420.144531 
	C93.078262,420.164154 89.930313,420.147980 86.782455,420.147980 
	C82.932243,421.120575 78.935905,421.272675 75.090874,422.115326 
	C72.990211,422.575684 71.145645,424.204681 69.185585,425.306641 
	C70.939949,426.503998 72.593002,428.516205 74.467270,428.749268 
	C80.618774,429.514099 86.848763,429.907715 93.051918,429.949402 
	C113.175049,430.084686 133.299667,430.000000 154.397995,430.000000 
M186.942459,425.565979 
	C189.554001,426.443756 192.109375,427.711151 194.791718,428.097778 
	C197.932678,428.550507 201.222290,427.928497 204.379791,428.319122 
	C210.866531,429.121582 217.281540,429.863464 223.777466,427.677094 
	C223.236938,425.130859 222.835815,423.241241 222.572311,422.000000 
	C217.833923,422.000000 213.563782,421.999664 209.293640,422.000061 
	C202.650192,422.000732 196.005966,421.942322 189.363586,422.027100 
	C185.872162,422.071625 185.873611,422.184906 186.942459,425.565979 
z"/>
<path fill="#262E4B" opacity="1.000000" stroke="none" 
	d="
M358.809723,365.926270 
	C358.238647,366.356995 357.667572,366.787750 356.729919,367.572754 
	C356.159851,368.240875 355.956360,368.554810 355.752869,368.868744 
	C355.752899,368.868744 355.866119,368.891968 355.490906,368.996826 
	C353.827209,369.367676 352.174438,370.279816 351.310577,369.792725 
	C346.423859,367.037476 341.726227,363.946869 335.988068,360.360382 
	C340.876129,349.979401 344.463593,339.072052 350.595734,329.858246 
	C399.243073,256.763214 448.361664,183.981720 497.366211,111.124596 
	C509.140747,93.618919 521.030273,76.190605 532.912354,59.165424 
	C533.303589,62.889469 533.949829,66.174652 533.951477,69.460167 
	C534.005188,176.152100 533.989075,282.844055 534.050781,389.535980 
	C534.052063,391.723145 534.849121,393.909851 535.449890,396.444153 
	C535.812134,399.953094 535.999451,403.114685 536.204224,406.591858 
	C536.429321,407.263580 536.636902,407.619751 536.979065,408.251648 
	C537.107300,408.935425 537.100952,409.343506 537.068665,410.181671 
	C536.694824,413.066376 536.346985,415.520966 535.669434,418.068542 
	C534.891479,418.099701 534.443237,418.037903 533.686157,417.697784 
	C520.489807,417.302734 507.602448,417.174255 494.714752,417.108032 
	C494.146057,417.105103 493.574402,417.670746 492.673462,418.059814 
	C491.895111,418.082489 491.447418,418.016876 491.009857,417.571289 
	C491.348450,415.462891 491.676941,413.734436 492.002716,412.002991 
	C492.000000,412.000000 492.006195,412.005157 492.220581,411.865692 
	C492.602173,411.433350 492.769348,411.140503 492.941223,410.889709 
	C492.945923,410.931793 492.861786,410.921967 493.256897,410.858765 
	C494.064667,409.029114 494.477325,407.262695 494.843079,405.178711 
	C494.925323,404.235352 495.054504,403.609528 495.312958,402.892670 
	C495.633148,402.496002 495.567841,402.236206 495.196411,401.604492 
	C495.457062,392.786346 495.767609,384.385986 496.344543,375.669006 
	C496.428741,367.238556 496.246490,359.124695 495.972260,350.549316 
	C495.876007,316.848694 495.853851,283.609589 495.877136,250.370468 
	C495.885376,238.576447 496.004242,226.782486 496.308136,214.764801 
	C496.389038,213.365082 496.234375,212.189041 495.994934,210.564117 
	C495.968567,207.072098 496.026978,204.028961 496.285217,200.831848 
	C496.350342,200.123093 496.215668,199.568344 495.991821,198.551559 
	C495.902618,190.768387 495.902618,183.447235 495.902618,176.126099 
	C495.350006,176.010071 494.797394,175.894058 494.244812,175.778046 
	C483.131256,191.584106 472.014313,207.387787 460.927948,223.212891 
	C460.701691,223.535858 460.830963,224.107941 460.789612,224.606628 
	C460.784851,224.649445 460.702087,224.625412 460.352966,224.645355 
	C453.821228,233.509811 447.578186,242.312820 441.468933,251.207687 
	C429.629791,268.444977 417.865997,285.733917 405.868347,303.129486 
	C405.386200,303.471375 405.261200,303.753723 405.050293,304.338837 
	C402.239960,308.392609 399.670074,312.212036 396.859131,316.202759 
	C396.366364,316.894348 396.114655,317.414642 395.576111,318.106384 
	C383.303101,334.293610 374.559326,352.791748 358.809723,365.926270 
z"/>
<path fill="#262D4A" opacity="1.000000" stroke="none" 
	d="
M246.002045,393.999786 
	C246.137100,392.893860 246.272171,391.787933 246.650269,390.229584 
	C246.893326,389.777161 247.095993,389.694672 247.297699,389.665405 
	C247.741791,389.482758 247.908279,389.269897 247.999359,388.529053 
	C248.001633,280.377594 248.003433,172.694672 248.372238,65.014954 
	C249.887177,65.791519 251.367981,66.324692 252.127991,67.377968 
	C256.431702,73.342392 260.445404,79.519005 264.841827,85.411476 
	C265.841125,86.750854 267.962616,87.252991 269.567566,88.140488 
	C269.567566,88.140495 269.756897,88.303604 269.568726,88.797806 
	C269.789093,95.239456 273.960175,98.908302 277.677032,102.820320 
	C277.983002,103.142372 278.943390,102.842690 279.599701,102.831886 
	C298.629395,130.320786 317.678284,157.796448 336.682617,185.302856 
	C351.433807,206.653275 366.129425,228.042068 380.966614,249.583511 
	C373.518951,260.401520 366.096863,271.182434 358.213623,281.686432 
	C334.232056,246.930588 310.711639,212.451630 286.536407,177.012817 
	C286.179474,179.395660 286.057465,180.210129 285.708801,181.216003 
	C285.633453,182.265167 285.784729,183.122894 286.030792,184.424530 
	C286.056702,187.584152 285.987854,190.299866 285.719147,193.168457 
	C285.650360,193.875580 285.781433,194.429825 286.000946,195.397491 
	C286.028290,197.213623 285.967255,198.616333 285.644043,200.337006 
	C285.558380,206.097183 285.734833,211.539413 286.002380,217.379272 
	C286.032349,218.857666 285.971222,219.938385 285.647522,221.336121 
	C285.560028,226.762390 285.735077,231.871674 286.001038,237.355255 
	C286.031952,238.492554 285.971954,239.255554 285.648285,240.336533 
	C285.558167,248.096436 285.731720,255.538345 285.992950,263.316467 
	C286.021698,264.108429 285.962830,264.564117 285.642029,265.338959 
	C285.274017,280.850616 285.158539,296.043152 285.097809,311.235870 
	C285.095490,311.816406 285.621643,312.399017 285.990356,313.438049 
	C286.020142,317.936646 285.961090,321.977905 285.640594,326.338318 
	C285.554077,332.765076 285.729004,338.872620 285.994080,345.378204 
	C286.024353,346.857513 285.964478,347.938812 285.642609,349.339111 
	C285.254242,353.420685 284.950958,357.187592 285.043671,360.944733 
	C285.175690,366.293762 285.598450,371.635681 285.985535,377.443115 
	C286.469666,387.346466 286.865295,396.787262 287.257050,406.555359 
	C287.468903,407.249420 287.684631,407.616150 288.046234,408.241882 
	C288.167175,408.893707 288.142273,409.286530 288.085999,410.128387 
	C288.684753,415.489777 286.725311,417.495911 281.623291,417.106384 
	C278.457275,416.864655 275.210815,417.676605 271.555298,418.116150 
	C268.072693,418.145081 265.035278,418.073517 261.695862,417.719788 
	C256.929718,417.626129 252.465515,417.814636 247.607773,418.099152 
	C246.142319,418.126312 245.070404,418.057434 244.000397,417.574860 
	C244.714935,414.337036 245.774261,411.547638 246.060822,408.680939 
	C246.516891,404.118652 250.117599,399.582092 246.430954,394.908966 
	C246.430954,394.908966 246.196899,394.937408 246.168518,394.723145 
	C246.094101,394.339172 246.048080,394.169464 246.002045,393.999786 
z"/>
<path fill="#242B47" opacity="1.000000" stroke="none" 
	d="
M387.002808,486.785675 
	C390.697784,486.842285 394.392731,486.898895 398.966370,486.955200 
	C401.562256,486.889343 403.279419,486.823822 405.460205,486.833130 
	C416.564636,486.920532 427.205597,486.966003 437.846344,486.936493 
	C448.850647,486.906006 451.399475,484.364349 451.398438,473.642853 
	C451.398376,473.187744 451.639954,472.732635 451.848297,471.997711 
	C453.596100,471.663544 455.360474,471.309540 457.131409,470.992157 
	C459.084991,470.641968 461.044586,470.325256 463.466980,470.052795 
	C541.469299,470.088165 619.006226,470.069061 696.543152,470.034119 
	C703.693604,470.030884 710.844055,469.926758 717.994507,469.869476 
	C720.702332,469.926849 723.410095,469.984222 726.973145,470.032501 
	C729.216797,469.971375 730.605225,469.919373 731.993652,469.867340 
	C739.153809,469.925934 746.313843,470.001068 753.474060,470.038818 
	C761.793274,470.082672 766.857178,474.087860 766.985718,480.768036 
	C767.118042,487.644806 761.899231,491.971924 753.411255,491.972656 
	C659.762878,491.980804 566.114502,492.006256 472.466217,491.905518 
	C468.498535,491.901245 466.199951,492.842712 463.745758,496.347443 
	C457.827728,504.798889 448.353943,507.587677 438.748596,507.720764 
	C407.427673,508.154724 376.091125,508.258942 344.773682,507.724335 
	C333.493774,507.531769 322.599945,504.617645 316.385529,493.257751 
	C315.833923,492.249390 313.200104,492.035156 311.532532,492.032745 
	C269.374176,491.971252 227.215714,491.990479 185.057281,491.989441 
	C132.900787,491.988190 80.744125,492.031677 28.588198,491.856964 
	C25.320118,491.846039 21.607124,490.793182 18.901787,489.010193 
	C15.139305,486.530487 14.264922,482.275940 15.630442,477.858398 
	C17.059261,473.236053 21.078674,470.123199 26.085287,470.069672 
	C36.081940,469.962830 46.080643,470.047821 57.003578,470.049011 
	C66.286713,469.984558 74.644760,469.924683 83.465347,469.944336 
	C157.292496,470.026093 230.657104,470.030212 304.021729,470.024139 
	C307.345184,470.023865 310.668640,469.931213 314.387939,469.971466 
	C315.860016,470.021057 316.936310,469.980743 318.338135,470.031372 
	C319.109558,470.084686 319.555389,470.047028 320.383636,470.151794 
	C324.131439,470.800415 327.496796,471.306580 331.017334,471.836090 
	C331.017334,473.200562 331.096497,474.020660 331.005249,474.821350 
	C329.957214,484.018372 334.931671,486.763641 342.639771,486.905975 
	C347.757751,487.000519 352.880737,486.821075 358.449524,486.845215 
	C361.930878,486.888000 364.964233,486.849884 368.409698,486.888611 
	C370.213745,486.906372 371.605652,486.847229 373.393677,486.865814 
	C374.859985,486.877441 375.930206,486.811340 377.447144,486.834900 
	C380.930145,486.878296 383.966461,486.832001 387.002808,486.785675 
z"/>
<path fill="#F0EBE5" opacity="1.000000" stroke="none" 
	d="
M387.004395,486.421631 
	C383.966461,486.832001 380.930145,486.878296 377.438812,486.509277 
	C376.974792,485.876984 376.965759,485.660004 377.122742,485.170013 
	C377.363800,484.263153 377.588013,483.605743 377.492279,482.998840 
	C374.622955,464.812073 363.535797,452.846405 348.026245,444.287811 
	C347.248657,443.858673 346.129944,444.047577 345.011993,443.614349 
	C343.261780,442.802490 341.669647,442.325012 340.063599,441.877655 
	C340.049713,441.907806 340.111511,441.883545 339.944244,441.546326 
	C338.696808,440.802673 337.642029,440.138550 336.532562,440.029297 
	C323.827637,438.778076 311.135620,437.025208 298.398224,436.563385 
	C280.616913,435.918671 262.799988,436.255035 245.053223,435.813599 
	C246.961731,434.071075 248.815292,432.686523 250.668869,431.301971 
	C250.555573,430.867889 250.442261,430.433807 250.328964,429.999725 
	C246.691467,430.456696 243.053970,430.913696 239.241394,431.392670 
	C239.991898,433.434204 240.496231,434.806122 240.594208,436.304901 
	C228.877213,436.620758 217.566498,436.969360 206.255966,436.963623 
	C186.317062,436.953491 166.378448,436.665863 146.439377,436.605865 
	C117.290428,436.518158 88.141174,436.528748 58.992046,436.497467 
	C59.663109,432.822479 62.555923,433.304962 65.135880,433.225525 
	C75.667831,432.901154 86.199921,432.580750 96.732224,432.268036 
	C100.215324,432.164642 103.703087,431.939423 107.182060,432.028778 
	C117.119438,432.283997 127.051208,432.830811 136.989258,432.967377 
	C149.161987,433.134705 161.339844,432.908234 173.513550,433.036194 
	C180.380478,433.108337 187.244934,433.804535 194.108002,433.766754 
	C204.373184,433.710297 214.641525,433.373474 224.897598,432.912781 
	C229.211029,432.719055 227.506058,429.889221 226.572006,427.670135 
	C233.105545,425.929413 233.224243,425.576874 228.809952,420.324249 
	C227.400040,418.646576 226.132401,417.180054 230.459106,417.391632 
	C235.420486,417.768341 239.709503,417.878448 243.998505,417.988586 
	C245.070404,418.057434 246.142319,418.126312 248.064209,418.192902 
	C253.275421,418.127747 257.636627,418.064880 261.997833,418.001984 
	C265.035278,418.073517 268.072693,418.145081 272.015350,418.211945 
	C281.111542,418.207245 289.302490,418.207245 298.404968,418.207245 
	C294.339478,414.837158 291.228424,412.258270 288.117371,409.679382 
	C288.142273,409.286530 288.167175,408.893707 288.064148,407.908203 
	C287.711151,406.953064 287.486053,406.590576 287.260956,406.228088 
	C286.865295,396.787262 286.469666,387.346466 286.070923,376.982605 
	C286.013367,367.046417 285.958984,358.033264 285.904572,349.020111 
	C285.964478,347.938812 286.024353,346.857513 286.080170,344.918274 
	C286.018066,338.046631 285.960052,332.032898 285.902039,326.019165 
	C285.961090,321.977905 286.020142,317.936646 286.076294,312.977600 
	C286.016937,296.379852 285.960449,280.699829 285.903961,265.019836 
	C285.962830,264.564117 286.021698,264.108429 286.079865,262.856323 
	C286.023407,254.712830 285.967682,247.365677 285.911957,240.018539 
	C285.971954,239.255554 286.031952,238.492554 286.088257,236.896896 
	C286.026428,231.049194 285.968262,226.034149 285.910095,221.019119 
	C285.971222,219.938385 286.032349,218.857666 286.090302,216.920197 
	C286.026825,210.715317 285.966522,205.367172 285.906189,200.019028 
	C285.967255,198.616333 286.028290,197.213623 286.085388,195.073227 
	C286.027283,193.895554 285.973145,193.455566 285.919006,193.015594 
	C285.987854,190.299866 286.056702,187.584152 286.121002,184.060410 
	C286.056122,182.509796 285.995789,181.767197 285.935455,181.024597 
	C286.057465,180.210129 286.179474,179.395660 286.536407,177.012817 
	C310.711639,212.451630 334.232056,246.930588 357.865967,281.733582 
	C354.335571,285.260284 352.994873,283.301910 351.920990,279.627228 
	C351.361084,277.711456 349.985504,276.011780 348.865845,274.287537 
	C347.431183,272.078217 345.983612,269.863525 344.357697,267.795715 
	C342.488831,265.419006 340.420898,263.198639 338.430542,260.918121 
	C338.328278,260.800934 338.009583,260.747894 338.014130,260.679932 
	C338.449341,254.192322 331.807922,252.206589 329.527069,247.377945 
	C327.713470,243.538437 325.383575,239.837234 322.708038,236.541290 
	C320.216919,233.472534 316.956451,231.030746 314.064667,228.281418 
	C313.732056,227.965195 313.493835,227.472092 313.376434,227.018402 
	C309.730957,212.931931 304.149078,208.559998 291.236725,202.324051 
	C290.476868,208.524963 289.216888,214.524918 289.093994,220.548065 
	C288.550842,247.166656 288.055847,273.792114 288.073303,300.414703 
	C288.093628,331.370361 288.668152,362.325684 288.998810,393.281128 
	C289.059937,399.003296 289.519104,399.717987 295.078064,402.030884 
	C290.883881,408.429413 294.858276,411.506714 300.118927,414.148376 
	C301.544159,414.864105 303.199005,415.898865 303.862701,417.229126 
	C308.212463,425.947113 315.595978,422.451294 322.152191,421.845337 
	C323.792419,421.693787 325.314301,420.261566 326.205292,419.784668 
	C329.524048,420.629883 332.305145,421.304932 335.066132,422.054108 
	C336.663971,422.487701 338.928680,422.564606 339.661377,423.640778 
	C341.111053,425.769928 341.705811,428.481201 342.654053,430.951782 
	C340.532410,430.922516 338.403717,430.990417 336.290985,430.837585 
	C334.009796,430.672546 331.745605,430.097046 329.470184,430.074005 
	C326.916534,430.048096 324.358673,430.440186 321.320831,431.585815 
	C324.001862,432.599243 326.607666,433.953156 329.377380,434.564880 
	C339.344666,436.766296 348.532349,440.663025 356.943420,446.430054 
	C357.749725,446.982910 358.658081,447.860687 359.487030,447.825867 
	C363.356628,447.663269 366.305817,448.254608 365.912537,453.197479 
	C365.876190,453.654388 367.073395,454.209442 367.960022,454.932831 
	C371.023163,449.404938 367.416199,446.402374 363.398743,443.607208 
	C367.390503,441.249329 370.633881,439.441254 373.744843,437.428467 
	C374.644806,436.846161 375.419067,435.775024 375.813904,434.758240 
	C377.418671,430.625854 378.760376,426.390961 380.378448,422.264160 
	C381.867981,418.465179 384.353699,414.950134 381.613220,410.544983 
	C381.183960,409.854980 382.750885,407.013153 384.015045,406.351685 
	C387.698792,404.424194 396.791473,410.001984 396.975952,414.081970 
	C397.373322,422.871613 398.086853,431.675446 397.891510,440.456085 
	C397.655914,451.044403 396.626373,461.615784 395.877930,472.190033 
	C395.839172,472.737915 395.213715,473.244324 394.399536,473.422852 
	C393.937683,452.480988 393.937683,431.886292 393.937683,410.906525 
	C391.957397,411.082336 390.581146,411.204529 389.030060,411.342255 
	C389.030060,433.350281 389.088715,454.975616 388.966125,476.599915 
	C388.947968,479.801086 390.712006,480.057007 393.005066,480.167053 
	C391.005371,482.130554 389.005676,484.094086 387.004395,486.421631 
M297.892639,432.128754 
	C303.870087,433.113312 309.852600,434.322540 316.156982,432.451477 
	C312.340973,425.664459 305.766541,425.577240 297.892639,432.128754 
M381.544189,476.005768 
	C382.249481,476.944427 382.954803,477.883087 383.660126,478.821716 
	C384.098328,478.751373 384.536530,478.681030 384.974762,478.610718 
	C385.297211,476.566681 385.619659,474.522675 385.942108,472.478668 
	C385.378296,472.236969 384.814484,471.995300 384.250641,471.753601 
	C383.274536,472.944305 382.298431,474.134979 381.544189,476.005768 
z"/>
<path fill="#F0EBE5" opacity="1.000000" stroke="none" 
	d="
M490.999756,417.951294 
	C491.447418,418.016876 491.895111,418.082489 493.134033,418.152161 
	C507.281830,418.096161 520.638428,418.036102 533.994995,417.976074 
	C534.443237,418.037903 534.891479,418.099701 536.116333,418.158295 
	C539.954224,418.155060 543.015564,418.155060 547.115601,418.155060 
	C542.947632,414.659851 540.021118,412.205688 537.094604,409.751556 
	C537.100952,409.343506 537.107300,408.935425 536.993469,407.925781 
	C536.644409,406.974854 536.415588,406.625580 536.186707,406.276276 
	C535.999451,403.114685 535.812134,399.953094 535.539612,395.973602 
	C535.381409,390.329803 535.245117,385.503937 535.244812,380.678040 
	C535.237610,274.145172 535.245544,167.612335 535.250549,61.079483 
	C535.250610,59.483398 535.250549,57.887318 535.250549,56.291233 
	C534.972290,56.220177 534.694031,56.149120 534.415833,56.078060 
	C533.899536,56.960941 533.383240,57.843826 532.866943,58.726711 
	C521.030273,76.190605 509.140747,93.618919 497.366211,111.124596 
	C448.361664,183.981720 399.243073,256.763214 350.595734,329.858246 
	C344.463593,339.072052 340.876129,349.979401 335.988068,360.360382 
	C341.726227,363.946869 346.423859,367.037476 351.310577,369.792725 
	C352.174438,370.279816 353.827209,369.367676 355.469849,368.943054 
	C357.012054,373.482330 353.009796,372.916016 349.884094,373.863953 
	C344.604980,370.998230 340.026825,368.218292 334.988190,365.158722 
	C331.059296,374.676453 327.303864,383.773956 323.389954,393.172882 
	C321.948242,396.483154 320.664978,399.492004 319.220642,402.731689 
	C319.113068,403.219177 319.166626,403.475830 319.220154,403.732483 
	C319.547302,403.556641 319.874451,403.380829 320.490051,403.071869 
	C322.179779,401.465790 323.580994,399.992828 324.982239,398.519867 
	C325.359039,399.575134 326.366699,400.982697 326.007019,401.626678 
	C324.114166,405.016083 321.590820,407.792938 316.390442,407.968292 
	C318.413208,400.279846 320.049744,392.936096 322.325378,385.796021 
	C323.901672,380.850189 326.524017,376.248291 328.386536,371.380829 
	C331.722687,362.662231 334.722687,353.813904 338.134064,345.126160 
	C338.910278,343.149231 341.677002,341.763824 342.019989,339.837738 
	C344.221924,327.471100 353.298218,319.753052 360.563446,310.653564 
	C364.893768,305.229980 367.432159,298.410767 371.152191,292.453827 
	C374.205536,287.564423 377.634277,282.878998 381.220703,278.360382 
	C385.981689,272.361969 390.867889,266.521912 392.122864,258.598877 
	C392.265778,257.696472 392.930023,256.801910 393.542297,256.060364 
	C398.698242,249.816071 404.249878,243.863693 408.999817,237.327393 
	C415.496429,228.387482 420.308472,218.325287 428.009674,210.112045 
	C431.289398,206.614212 432.672089,201.404282 435.310272,197.220459 
	C438.213898,192.615662 441.698914,188.381210 444.699036,183.832672 
	C449.466949,176.603867 453.858551,169.122055 458.753082,161.982956 
	C463.395142,155.212051 468.687195,148.886154 473.315002,142.106247 
	C478.885712,133.944962 483.963654,125.448952 489.432678,117.215919 
	C493.338806,111.335579 497.622589,105.707153 501.579315,99.859039 
	C504.772736,95.139069 507.631683,90.193123 510.814636,85.465683 
	C515.067139,79.149696 519.576965,73.006386 523.799255,66.670937 
	C525.696472,63.824219 526.787292,60.369865 528.969543,57.809677 
	C530.271729,56.281910 532.936890,55.624523 535.091003,55.337013 
	C535.576660,55.272194 536.908142,58.324020 537.115906,60.030540 
	C537.635254,64.297394 537.976379,68.616249 537.964355,72.913055 
	C537.676880,175.722321 537.302063,278.531372 537.089539,381.340759 
	C537.078552,386.647949 538.108887,392.013245 539.223145,397.230011 
	C539.525940,398.647675 541.908386,399.621124 543.336426,400.798462 
	C544.218567,399.380188 545.440186,398.056152 545.868652,396.511993 
	C546.176331,395.403015 545.820312,393.668365 545.078979,392.783936 
	C541.245300,388.210236 544.263733,383.835968 544.484863,377.993073 
	C545.944336,379.652588 546.740479,380.134430 546.828369,380.722260 
	C547.904602,387.915405 549.315063,395.107422 549.591248,402.339722 
	C549.667419,404.334473 546.281738,406.461456 543.791382,408.329407 
	C544.180908,414.447998 555.983521,409.654327 553.814026,419.144653 
	C556.054810,418.369415 557.335510,417.926331 558.874390,417.393951 
	C560.685059,421.616669 564.124512,422.403748 568.288391,422.052460 
	C571.432495,421.787231 574.619873,421.911438 577.783020,422.014465 
	C597.364380,422.652344 616.942139,423.755585 636.525391,423.856049 
	C650.268738,423.926575 664.020569,422.677307 677.763794,421.929016 
	C679.036926,421.859711 680.370667,421.327057 681.513672,420.708893 
	C687.433838,417.507172 693.427002,417.255585 699.838196,419.297760 
	C702.594727,420.175812 705.789001,419.568451 708.712463,420.062317 
	C712.140442,420.641388 715.490051,421.684601 718.873596,422.526489 
	C718.875977,423.242188 718.878296,423.957855 718.880615,424.673553 
	C714.179077,426.115479 709.501038,428.706207 704.772034,428.802734 
	C682.948730,429.248108 661.109863,429.131592 639.279724,428.907562 
	C633.692505,428.850250 628.103882,427.015503 622.538452,427.126862 
	C608.116943,427.415497 593.708313,428.338837 579.293701,428.990784 
	C577.963623,429.050964 576.398315,429.438202 575.331238,428.900879 
	C567.432251,424.923309 560.096375,429.319031 552.499329,430.059448 
	C546.622925,430.632172 540.622742,430.551666 534.739136,430.045776 
	C533.040466,429.899719 531.560913,427.269836 529.969360,425.791046 
	C528.720154,424.630280 527.526428,422.603210 526.181519,422.492004 
	C520.446167,422.017944 514.661682,422.175140 508.899384,421.978424 
	C504.947052,421.843536 502.029694,422.491577 501.934753,427.481812 
	C501.838623,432.530975 505.283478,431.410492 508.305115,432.147980 
	C512.831055,433.252594 518.460327,430.104523 521.493408,435.965637 
	C510.738068,436.562286 500.387054,436.673004 489.592010,436.636108 
	C474.002625,436.365417 458.870575,436.407257 444.033722,440.118134 
	C447.528656,437.303345 450.266693,433.654510 455.740082,433.847626 
	C461.962585,434.067139 468.226105,433.123688 474.421509,431.860748 
	C465.815796,426.205780 457.331146,427.824463 448.949921,432.008484 
	C448.075256,427.767242 453.264618,422.280060 458.052429,422.026733 
	C460.545044,421.894836 463.051544,421.950195 465.549622,422.010620 
	C470.762024,422.136658 476.116577,422.712189 479.599792,417.007324 
	C480.037079,417.025024 480.159027,417.138824 480.445801,417.417969 
	C484.154968,417.781830 487.577362,417.866547 490.999756,417.951294 
M494.522125,432.275696 
	C494.271332,432.011902 494.022858,431.745636 493.756836,431.498169 
	C493.750000,431.491791 493.551117,431.691864 493.441803,431.795654 
	C493.692932,432.059570 493.944061,432.323456 494.522125,432.275696 
z"/>
<path fill="#F7F1EA" opacity="1.000000" stroke="none" 
	d="
M83.002823,469.864777 
	C74.644760,469.924683 66.286713,469.984558 57.465961,469.965942 
	C58.171032,468.925018 59.265152,467.264526 60.520477,467.132080 
	C64.182114,466.745789 66.851227,466.222168 65.171951,461.483673 
	C64.706261,460.169617 64.870644,458.473145 65.207909,457.062561 
	C66.354996,452.264923 67.708511,447.516693 69.450562,442.265808 
	C148.128281,441.731598 226.338654,441.676758 304.549011,441.648224 
	C307.367493,441.647186 310.186035,441.905121 313.242096,442.288147 
	C314.979034,442.423004 316.478394,442.312012 318.394226,442.140015 
	C321.545135,442.440186 324.279602,442.801392 327.270325,443.357971 
	C327.946259,443.539398 328.365906,443.525513 329.164490,443.435059 
	C331.329132,443.708435 333.114868,444.058350 335.143921,444.616577 
	C336.588715,445.266357 337.790192,445.707855 338.973938,446.530212 
	C334.706970,452.574615 331.754425,446.389923 328.554291,445.791168 
	C326.056152,447.890656 323.748535,449.830017 321.835876,451.437439 
	C323.564697,453.732178 325.254669,455.975433 326.569214,458.243286 
	C325.457703,458.121674 324.721649,457.975464 323.730286,457.634583 
	C323.055634,457.445251 322.636292,457.450562 321.835876,457.538940 
	C319.633423,457.361206 317.812012,457.100372 315.898926,456.703674 
	C315.484314,456.371643 315.220123,456.446686 314.576202,456.855103 
	C297.171356,456.702820 280.205292,456.328522 263.238678,456.302155 
	C198.182114,456.201141 133.125397,456.211823 67.780785,456.114990 
	C67.361893,456.379761 67.230957,456.710388 67.056610,457.420502 
	C67.342323,459.195496 67.671455,460.590973 68.098984,462.140198 
	C68.466797,462.177490 68.736214,462.061066 69.447273,461.812561 
	C73.257408,461.733185 76.625893,461.785889 80.155716,462.174103 
	C82.852631,463.722229 85.388214,464.934875 88.388069,466.369537 
	C85.953941,467.949371 84.478386,468.907074 83.002823,469.864777 
z"/>
<path fill="#F0EBE5" opacity="1.000000" stroke="none" 
	d="
M496.078156,375.985626 
	C495.767609,384.385986 495.457062,392.786346 495.118103,401.840820 
	C495.089722,402.494965 495.183685,402.983704 495.183685,402.983704 
	C495.054504,403.609528 494.925323,404.235352 494.594666,405.460083 
	C493.882721,407.679993 493.372253,409.300964 492.861786,410.921967 
	C492.861786,410.921967 492.945923,410.931793 492.696289,410.996826 
	C492.299805,411.376312 492.152985,411.690735 492.006195,412.005157 
	C492.006195,412.005157 492.000000,412.000000 491.690491,412.154419 
	C487.640350,413.918854 483.899689,415.528839 480.159027,417.138824 
	C480.159027,417.138824 480.037079,417.025024 479.976868,416.966431 
	C481.283020,415.602661 482.433411,413.836273 484.055328,413.076904 
	C489.407013,410.571198 491.773529,406.758942 491.081177,400.771118 
	C490.784790,398.207581 491.672668,395.526489 491.626984,392.905670 
	C491.607208,391.772522 490.879425,390.101624 489.972870,389.623169 
	C483.995178,386.468262 483.997375,380.730133 484.124359,375.402344 
	C484.312958,367.490723 485.858398,359.602295 485.908783,351.698151 
	C486.123291,318.051575 485.819000,284.400757 486.203796,250.757233 
	C486.258698,245.957443 489.116089,241.207611 490.558350,236.399231 
	C491.449097,233.429550 492.459198,230.428284 492.774658,227.374969 
	C493.022980,224.971588 491.967133,222.453842 492.065796,220.010117 
	C492.240356,215.686737 488.362976,215.804443 486.050385,214.469620 
	C485.542419,214.176422 482.810791,216.375320 482.204956,217.872421 
	C480.520905,222.034134 479.249573,225.661255 473.363800,225.402664 
	C471.278412,225.311035 468.538452,228.196686 466.967102,230.356049 
	C459.517090,240.593704 452.305573,251.007599 445.155182,261.458649 
	C443.397949,264.027069 442.284485,267.028046 440.673553,269.709076 
	C440.148804,270.582428 438.983765,271.071045 437.464233,272.228882 
	C437.464233,269.478302 437.464233,267.493591 437.464233,265.508881 
	C437.016968,265.278015 436.569702,265.047180 436.122406,264.816315 
	C431.844696,271.651520 427.566986,278.486725 422.679688,286.296021 
	C425.665375,286.296021 427.022491,286.296021 428.864502,286.296021 
	C427.239624,291.209839 425.387177,295.119659 419.365936,296.190613 
	C419.837189,293.579193 420.194122,291.601288 420.585114,289.434723 
	C415.718262,291.957275 415.698456,293.389893 417.925629,297.479492 
	C418.835999,299.151306 418.254150,303.093689 416.867828,304.303833 
	C411.119415,309.321716 408.967987,316.405884 405.114990,322.493500 
	C402.309662,326.925720 398.662994,330.825439 395.391449,334.962555 
	C395.019653,334.773773 394.647827,334.584991 394.276001,334.396210 
	C394.434631,332.114166 394.593262,329.832123 394.783325,327.097748 
	C393.498047,327.394012 392.389771,327.311584 392.072601,327.772980 
	C386.771912,335.483856 381.570343,343.262878 376.345428,351.025909 
	C376.159485,351.302185 375.774414,351.584198 375.794586,351.838806 
	C376.200897,356.970764 373.924225,359.764343 368.741211,360.232483 
	C368.249390,360.276947 367.422729,361.134979 367.437958,361.592407 
	C367.656769,368.157654 363.093506,366.051086 359.226868,365.946045 
	C374.559326,352.791748 383.303101,334.293610 395.856995,318.351318 
	C396.887726,319.908020 397.350677,321.391266 397.988983,323.436218 
	C402.078369,321.057434 404.519196,318.287537 405.363281,313.951355 
	C407.997345,309.563965 410.311768,305.246948 412.488312,300.861481 
	C412.789093,300.255432 412.407593,299.310730 412.399536,299.213867 
	C410.181763,300.541199 408.126343,301.771332 406.070953,303.001465 
	C417.865997,285.733917 429.629791,268.444977 441.468933,251.207687 
	C447.578186,242.312820 453.821228,233.509811 460.431976,225.059875 
	C461.072815,226.827744 461.285522,228.201019 461.498199,229.574280 
	C461.928406,229.701065 462.358643,229.827850 462.788849,229.954636 
	C463.987427,228.047562 465.185974,226.140503 467.024811,223.214722 
	C463.849243,223.902328 462.321808,224.233078 460.794373,224.563812 
	C460.830963,224.107941 460.701691,223.535858 460.927948,223.212891 
	C472.014313,207.387787 483.131256,191.584106 494.244812,175.778046 
	C494.797394,175.894058 495.350006,176.010071 495.902618,176.126099 
	C495.902618,183.447235 495.902618,190.768387 495.911499,198.877121 
	C495.975372,200.105087 496.030365,200.545456 496.085388,200.985840 
	C496.026978,204.028961 495.968567,207.072098 495.909424,210.956177 
	C495.963348,212.860916 496.017975,213.924698 496.072601,214.988495 
	C496.004242,226.782486 495.885376,238.576447 495.877136,250.370468 
	C495.853851,283.609589 495.876007,316.848694 495.884918,351.010254 
	C495.952454,359.950317 496.015320,367.967957 496.078156,375.985626 
M452.829956,245.375076 
	C454.743530,242.889282 456.853149,240.524673 458.493805,237.870178 
	C459.410187,236.387405 459.547729,234.423233 460.036255,232.675980 
	C452.294922,237.047821 448.842712,243.180649 449.954193,249.205032 
	C451.012207,247.874664 451.752167,246.944229 452.829956,245.375076 
M441.925140,261.322052 
	C442.261566,259.776764 442.597992,258.231506 442.934418,256.686218 
	C442.398193,256.602844 441.861969,256.519470 441.325745,256.436066 
	C440.007324,257.984253 436.854370,259.246124 441.925140,261.322052 
z"/>
<path fill="#F8F2EE" opacity="1.000000" stroke="none" 
	d="
M717.984009,469.478394 
	C710.844055,469.926758 703.693604,470.030884 696.543152,470.034119 
	C619.006226,470.069061 541.469299,470.088165 463.525330,469.714355 
	C464.445068,468.260590 465.771790,467.204102 468.102203,465.348389 
	C464.455597,464.384338 462.234039,463.797028 460.428040,463.124695 
	C464.589478,462.616608 468.335388,462.193542 472.543915,461.798157 
	C512.837036,461.769043 552.667786,461.787079 592.497864,461.634674 
	C632.990173,461.479736 673.481873,461.156799 713.973816,460.907410 
	C717.653625,462.486664 717.107483,466.132233 717.984009,469.478394 
z"/>
<path fill="#23273D" opacity="1.000000" stroke="none" 
	d="
M327.014038,443.162628 
	C324.279602,442.801392 321.545135,442.440186 317.989777,442.031921 
	C315.780762,442.004089 314.392639,442.023224 313.004547,442.042358 
	C310.186035,441.905121 307.367493,441.647186 304.549011,441.648224 
	C226.338654,441.676758 148.128281,441.731598 69.458733,441.883911 
	C66.032005,441.850555 63.064465,441.715393 59.601120,441.291260 
	C58.774223,440.653564 58.443138,440.304840 58.112061,439.956116 
	C58.208549,438.963989 58.305035,437.971832 58.696785,436.738586 
	C88.141174,436.528748 117.290428,436.518158 146.439377,436.605865 
	C166.378448,436.665863 186.317062,436.953491 206.255966,436.963623 
	C217.566498,436.969360 228.877213,436.620758 240.983002,436.427002 
	C242.851562,436.338715 243.924927,436.255157 244.998306,436.171631 
	C262.799988,436.255035 280.616913,435.918671 298.398224,436.563385 
	C311.135620,437.025208 323.827637,438.778076 336.532562,440.029297 
	C337.642029,440.138550 338.696808,440.802673 339.564087,441.600922 
	C337.867676,442.797943 336.384155,443.603119 334.900635,444.408295 
	C333.114868,444.058350 331.329132,443.708435 328.906281,443.249084 
	C327.850800,443.147278 327.432434,443.154938 327.014038,443.162628 
z"/>
<path fill="#212938" opacity="1.000000" stroke="none" 
	d="
M714.135986,460.566833 
	C673.481873,461.156799 632.990173,461.479736 592.497864,461.634674 
	C552.667786,461.787079 512.837036,461.769043 472.510498,461.450806 
	C472.681610,459.666077 473.348816,458.256287 474.421906,456.770905 
	C479.651825,456.561829 484.475830,456.312714 489.299835,456.312408 
	C553.054443,456.308197 616.809082,456.344330 680.563660,456.353180 
	C687.378601,456.354126 694.193542,456.246918 701.371704,456.340088 
	C704.159729,456.521973 706.584534,456.553680 709.009338,456.585388 
	C711.611511,457.261261 714.213684,457.937134 717.920532,458.899933 
	C716.090881,459.569885 715.194519,459.898071 714.135986,460.566833 
z"/>
<path fill="#F0EBE5" opacity="1.000000" stroke="none" 
	d="
M153.910858,430.000000 
	C133.299667,430.000000 113.175049,430.084686 93.051918,429.949402 
	C86.848763,429.907715 80.618774,429.514099 74.467270,428.749268 
	C72.593002,428.516205 70.939949,426.503998 69.185585,425.306641 
	C71.145645,424.204681 72.990211,422.575684 75.090874,422.115326 
	C78.935905,421.272675 82.932243,421.120575 86.782455,420.147980 
	C89.930313,420.147980 93.078262,420.164154 96.225998,420.144531 
	C102.210754,420.107178 108.195297,420.031738 114.180077,420.005188 
	C119.668343,419.980835 125.177147,419.697052 130.640869,420.064026 
	C141.500290,420.793396 152.323074,422.079010 163.184341,422.765594 
	C169.454514,423.161987 175.770233,422.837585 182.348297,422.837585 
	C181.080536,428.612396 176.843445,428.500153 172.993607,428.804810 
	C166.802322,429.294769 160.597244,429.610596 153.910858,430.000000 
z"/>
<path fill="#F0EBE5" opacity="1.000000" stroke="none" 
	d="
M404.996613,486.758301 
	C403.279419,486.823822 401.562256,486.889343 399.421204,486.877136 
	C399.591400,485.712036 400.328461,484.676849 400.747711,483.525909 
	C401.480103,481.515442 402.118103,479.456238 402.580841,477.369812 
	C402.741974,476.643311 401.872284,475.591431 402.147095,475.002472 
	C404.076752,470.867004 405.637665,467.112549 398.772858,466.231049 
	C398.357391,466.177704 397.530060,462.362000 398.291046,461.272797 
	C402.540985,455.190155 400.500580,448.413910 400.989899,441.932770 
	C401.064728,440.941467 400.729614,439.833710 401.065552,438.966248 
	C401.679413,437.381378 402.653229,435.935944 403.476868,434.432343 
	C404.690338,435.377930 406.359741,436.076233 407.031921,437.315430 
	C409.066315,441.066040 410.943085,442.712921 414.253967,438.444000 
	C415.008026,437.471771 416.899170,437.381439 418.266907,436.885162 
	C418.682007,438.831879 419.657684,440.876770 419.339264,442.695007 
	C419.072571,444.217865 417.294250,445.475952 415.301666,447.947083 
	C421.911560,445.790222 427.261505,444.044464 433.539642,441.995819 
	C433.539642,441.824951 433.347076,440.426422 433.595703,439.111328 
	C433.828339,437.880829 434.528717,436.738739 435.023315,435.557739 
	C436.005371,436.143127 437.085419,436.613129 437.944794,437.342957 
	C439.024780,438.260071 439.924103,439.389984 440.736511,441.041321 
	C435.228943,444.630646 429.391602,446.977386 424.642914,450.709381 
	C413.610657,459.379578 405.575012,470.122131 405.009460,485.260406 
	C405.002197,485.959412 404.999420,486.358826 404.996613,486.758301 
z"/>
<path fill="#2A2B3E" opacity="1.000000" stroke="none" 
	d="
M723.985535,437.039185 
	C723.985535,437.039154 723.982788,437.529877 723.960083,438.108551 
	C724.125305,440.692444 723.884644,442.070618 721.189758,441.714233 
	C719.169128,441.446991 717.067261,441.794800 715.001526,441.868774 
	C714.244995,441.791168 713.488525,441.713531 711.949341,441.632751 
	C709.446716,441.707947 707.726746,441.786377 705.550171,441.746399 
	C677.523071,441.676422 649.952576,441.756470 622.382019,441.755737 
	C612.927063,441.755493 603.472046,441.553101 594.013000,441.056274 
	C594.008850,439.384186 594.008728,438.098846 594.008667,436.813507 
	C595.726501,436.678528 597.444397,436.543549 599.987793,436.411896 
	C632.570557,436.434418 664.327820,436.413025 696.084839,436.498138 
	C705.385498,436.523041 714.685303,436.850433 723.985535,437.039185 
z"/>
<path fill="#23273D" opacity="1.000000" stroke="none" 
	d="
M248.005249,65.011734 
	C248.003433,172.694672 248.001633,280.377594 247.818634,388.606445 
	C247.399353,389.275696 247.218887,389.456451 247.095993,389.694672 
	C247.095993,389.694672 246.893326,389.777161 246.802856,389.838745 
	C246.614304,387.917267 246.431366,385.934296 246.430405,383.951233 
	C246.393417,307.612671 246.373077,231.274094 246.337875,154.021790 
	C246.246353,131.397598 246.167480,109.687172 246.088623,87.976738 
	C246.210419,80.294846 246.332199,72.612953 246.795258,64.530403 
	C247.426102,64.423744 247.715683,64.717743 248.005249,65.011734 
z"/>
<path fill="#23273D" opacity="1.000000" stroke="none" 
	d="
M593.682617,436.677124 
	C594.008728,438.098846 594.008850,439.384186 593.610107,441.170105 
	C587.812500,441.576965 582.413574,441.483215 576.833557,441.063843 
	C567.418762,440.570831 558.185303,440.392273 548.950989,440.283539 
	C548.632751,440.279816 548.306274,440.974854 547.534180,441.476471 
	C528.057800,441.566498 509.030853,441.524292 490.006226,441.145142 
	C490.017731,439.466705 490.026886,438.125214 490.036072,436.783691 
	C500.387054,436.673004 510.738068,436.562286 521.543701,436.326416 
	C524.075195,436.297852 526.152039,436.394409 529.051758,436.494049 
	C546.583191,436.378052 563.291687,436.259003 580.000183,436.139954 
	C580.756409,436.221313 581.512634,436.302673 583.071045,436.390869 
	C586.581970,436.325134 589.290649,436.252533 591.999329,436.179962 
	C592.451721,436.300232 592.904175,436.420502 593.682617,436.677124 
z"/>
<path fill="#2A2B3E" opacity="1.000000" stroke="none" 
	d="
M489.592010,436.636108 
	C490.026886,438.125214 490.017731,439.466705 489.548462,441.252167 
	C481.718170,441.842865 474.347961,441.989624 466.539551,442.062256 
	C462.479309,442.328613 458.802948,442.382202 455.244080,443.056213 
	C432.629669,447.339111 415.597748,458.303680 409.643311,482.047974 
	C408.930756,484.889526 407.392426,485.319946 405.013885,484.960846 
	C405.575012,470.122131 413.610657,459.379578 424.642914,450.709381 
	C429.391602,446.977386 435.228943,444.630646 440.803833,441.392090 
	C441.888550,440.955811 442.741119,440.781982 443.813721,440.363159 
	C458.870575,436.407257 474.002625,436.365417 489.592010,436.636108 
M485.479309,439.794250 
	C485.479309,439.794250 485.591919,439.499420 485.591919,439.499420 
	C485.591919,439.499420 485.332031,439.576050 485.479309,439.794250 
z"/>
<path fill="#F0EBE5" opacity="1.000000" stroke="none" 
	d="
M723.970459,436.626953 
	C714.685303,436.850433 705.385498,436.523041 696.084839,436.498138 
	C664.327820,436.413025 632.570557,436.434418 600.406555,436.290497 
	C601.590759,435.443970 603.170227,434.128296 604.774597,434.097290 
	C614.746704,433.904724 624.731934,434.238953 634.697815,433.924072 
	C642.606323,433.674194 650.484619,432.536865 658.393616,432.203674 
	C662.654541,432.024170 666.949402,432.912170 671.232910,432.959747 
	C682.128052,433.080872 693.026978,432.888275 703.921204,433.045349 
	C709.704651,433.128754 715.489746,433.586334 721.252869,434.108643 
	C722.209534,434.195312 723.057312,435.482361 723.970459,436.626953 
z"/>
<path fill="#262E4B" opacity="1.000000" stroke="none" 
	d="
M323.548431,392.871460 
	C327.303864,383.773956 331.059296,374.676453 334.988190,365.158722 
	C340.026825,368.218292 344.604980,370.998230 349.487091,373.923523 
	C349.791077,374.068878 349.724701,374.384583 349.492004,374.697815 
	C343.188690,381.179535 337.181641,387.413086 330.990936,393.458557 
	C329.827698,394.594482 327.931122,394.979431 326.160889,395.514099 
	C325.148682,394.502014 324.348572,393.686737 323.548431,392.871460 
z"/>
<path fill="#3D3F4D" opacity="1.000000" stroke="none" 
	d="
M393.291321,479.887665 
	C390.712006,480.057007 388.947968,479.801086 388.966125,476.599915 
	C389.088715,454.975616 389.030060,433.350281 389.030060,411.342255 
	C390.581146,411.204529 391.957397,411.082336 393.937683,410.906525 
	C393.937683,431.886292 393.937683,452.480988 394.018860,473.538330 
	C393.925903,475.870056 393.751740,477.739166 393.291321,479.887665 
z"/>
<path fill="#F0EBE5" opacity="1.000000" stroke="none" 
	d="
M186.646088,425.356598 
	C185.873611,422.184906 185.872162,422.071625 189.363586,422.027100 
	C196.005966,421.942322 202.650192,422.000732 209.293640,422.000061 
	C213.563782,421.999664 217.833923,422.000000 222.572311,422.000000 
	C222.835815,423.241241 223.236938,425.130859 223.777466,427.677094 
	C217.281540,429.863464 210.866531,429.121582 204.379791,428.319122 
	C201.222290,427.928497 197.932678,428.550507 194.791718,428.097778 
	C192.109375,427.711151 189.554001,426.443756 186.646088,425.356598 
z"/>
<path fill="#F0EBE5" opacity="1.000000" stroke="none" 
	d="
M579.908142,435.739380 
	C563.291687,436.259003 546.583191,436.378052 529.423035,436.359436 
	C531.038269,434.878052 533.083801,432.425446 535.175659,432.385254 
	C543.620239,432.223206 552.080750,432.763733 560.531860,433.128632 
	C565.319031,433.335266 570.107056,433.617340 574.878296,434.047394 
	C576.549500,434.198029 578.171570,434.892609 579.908142,435.739380 
z"/>
<path fill="#F0EBE5" opacity="1.000000" stroke="none" 
	d="
M326.372955,395.710938 
	C327.931122,394.979431 329.827698,394.594482 330.990936,393.458557 
	C337.181641,387.413086 343.188690,381.179535 349.557739,374.845123 
	C352.277588,378.339661 349.693115,381.078156 347.410278,382.793579 
	C342.546661,386.448395 337.682617,389.829132 334.517303,395.306641 
	C332.967346,397.988739 329.942902,398.302460 326.627136,396.679443 
	C326.289490,396.129242 326.331238,395.920074 326.372955,395.710938 
z"/>
<path fill="#2A2B3E" opacity="1.000000" stroke="none" 
	d="
M248.372238,65.014954 
	C247.715683,64.717743 247.426102,64.423744 246.926926,64.082436 
	C246.602966,63.582397 246.488602,63.129673 246.861221,62.335266 
	C248.601547,61.996277 249.854889,61.998974 251.108246,62.001671 
	C255.056061,67.439278 259.031555,72.857086 262.940796,78.322296 
	C265.116669,81.364243 267.182129,84.485153 269.432465,87.855484 
	C267.962616,87.252991 265.841125,86.750854 264.841827,85.411476 
	C260.445404,79.519005 256.431702,73.342392 252.127991,67.377968 
	C251.367981,66.324692 249.887177,65.791519 248.372238,65.014954 
z"/>
<path fill="#2A2B3E" opacity="1.000000" stroke="none" 
	d="
M244.000397,417.574829 
	C239.709503,417.878448 235.420486,417.768341 230.827072,417.440918 
	C241.858170,415.560059 245.459152,411.288330 246.041473,398.160370 
	C246.005707,397.337219 245.965515,397.172913 245.925323,397.008606 
	C246.021912,396.538757 246.118515,396.068878 246.323029,395.253998 
	C250.117599,399.582092 246.516891,404.118652 246.060822,408.680939 
	C245.774261,411.547638 244.714935,414.337036 244.000397,417.574829 
z"/>
<path fill="#F0EBE5" opacity="1.000000" stroke="none" 
	d="
M706.006714,441.864777 
	C707.726746,441.786377 709.446716,441.707947 711.583008,441.749359 
	C711.608032,442.734039 711.440796,443.854706 710.790710,444.424042 
	C704.741516,449.722137 704.717407,449.694611 708.988159,456.235870 
	C706.584534,456.553680 704.159729,456.521973 701.370972,455.941528 
	C701.547363,453.890839 702.075317,452.384277 702.630676,450.887878 
	C703.748169,447.877258 704.880554,444.872162 706.006714,441.864777 
z"/>
<path fill="#F8F3EE" opacity="1.000000" stroke="none" 
	d="
M245.788147,88.271561 
	C246.167480,109.687172 246.246353,131.397598 246.216980,153.568176 
	C245.738419,152.813400 245.049347,151.599533 245.045303,150.383392 
	C244.979355,130.581223 244.994400,110.778763 245.021881,90.976418 
	C245.022995,90.172852 245.325577,89.369720 245.788147,88.271561 
z"/>
<path fill="#F0EBE5" opacity="1.000000" stroke="none" 
	d="
M715.018311,442.280212 
	C717.067261,441.794800 719.169128,441.446991 721.189758,441.714233 
	C723.884644,442.070618 724.125305,440.692444 724.031372,438.343323 
	C725.065796,439.268280 726.292358,440.441711 726.767273,441.865814 
	C726.904663,442.277863 724.975952,443.905090 723.835938,444.115021 
	C720.814209,444.671509 717.290283,447.170258 715.018311,442.280212 
z"/>
<path fill="#2A2B3E" opacity="1.000000" stroke="none" 
	d="
M279.457367,102.502144 
	C278.943390,102.842690 277.983002,103.142372 277.677032,102.820320 
	C273.960175,98.908302 269.789093,95.239456 269.595520,88.919846 
	C272.978668,93.089256 276.146851,97.630829 279.457367,102.502144 
z"/>
<path fill="#3D3F4D" opacity="1.000000" stroke="none" 
	d="
M326.160889,395.514099 
	C326.331238,395.920074 326.289490,396.129242 326.211792,396.656250 
	C325.842224,397.336945 325.508575,397.699768 325.078613,398.291260 
	C323.580994,399.992828 322.179779,401.465790 320.292267,402.887512 
	C319.664581,402.724487 319.523163,402.612671 319.381744,402.500854 
	C320.664978,399.492004 321.948242,396.483154 323.389954,393.172882 
	C324.348572,393.686737 325.148682,394.502014 326.160889,395.514099 
z"/>
<path fill="#23273D" opacity="1.000000" stroke="none" 
	d="
M251.138382,61.651413 
	C249.854889,61.998974 248.601547,61.996277 246.973389,61.997417 
	C246.467438,60.326694 246.336273,58.652134 246.480270,56.495884 
	C246.900970,55.906349 247.046494,55.798508 247.192001,55.690659 
	C248.517517,57.560825 249.843018,59.430992 251.138382,61.651413 
z"/>
<path fill="#F0EBE5" opacity="1.000000" stroke="none" 
	d="
M591.929565,435.804596 
	C589.290649,436.252533 586.581970,436.325134 583.437256,436.272705 
	C585.486084,430.138275 588.805298,434.415894 591.929565,435.804596 
z"/>
<path fill="#F8F2EE" opacity="1.000000" stroke="none" 
	d="
M731.908325,469.527435 
	C730.605225,469.919373 729.216797,469.971375 727.417236,469.947540 
	C728.252258,467.112305 729.927551,467.374512 731.908325,469.527435 
z"/>
<path fill="#6E747B" opacity="1.000000" stroke="none" 
	d="
M58.033989,440.261139 
	C58.443138,440.304840 58.774223,440.653564 59.164818,441.235168 
	C58.801521,441.167450 58.378719,440.866791 58.033989,440.261139 
z"/>
<path fill="#7F7D87" opacity="1.000000" stroke="none" 
	d="
M247.053253,55.445885 
	C247.046494,55.798508 246.900970,55.906349 246.490555,56.074341 
	C246.455292,55.823360 246.684891,55.512234 247.053253,55.445885 
z"/>
<path fill="#F0EBE5" opacity="1.000000" stroke="none" 
	d="
M356.020966,368.768066 
	C355.956360,368.554810 356.159851,368.240875 356.633484,367.829529 
	C356.698761,368.043854 356.493927,368.355621 356.020966,368.768066 
z"/>
<path fill="#F8F3EE" opacity="1.000000" stroke="none" 
	d="
M245.849319,394.093506 
	C246.048080,394.169464 246.094101,394.339172 246.056183,394.758942 
	C245.820206,394.836914 245.650040,394.676270 245.529312,394.484528 
	C245.500458,394.438690 245.636429,394.289093 245.849319,394.093506 
z"/>
<path fill="#F8F3EE" opacity="1.000000" stroke="none" 
	d="
M245.782639,397.100708 
	C245.965515,397.172913 246.005707,397.337219 245.969055,397.743347 
	C245.752579,397.818512 245.594345,397.662720 245.485962,397.477783 
	C245.457657,397.429474 245.584427,397.290283 245.782639,397.100708 
z"/>
<path fill="#222A3C" opacity="1.000000" stroke="none" 
	d="
M532.912354,59.165421 
	C533.383240,57.843826 533.899536,56.960941 534.415833,56.078060 
	C534.694031,56.149120 534.972290,56.220177 535.250549,56.291233 
	C535.250549,57.887318 535.250610,59.483398 535.250549,61.079483 
	C535.245544,167.612335 535.237610,274.145172 535.244812,380.678040 
	C535.245117,385.503937 535.381409,390.329803 535.364624,395.626221 
	C534.849121,393.909851 534.052063,391.723145 534.050781,389.535980 
	C533.989075,282.844055 534.005188,176.152100 533.951477,69.460167 
	C533.949829,66.174652 533.303589,62.889469 532.912354,59.165421 
z"/>
<path fill="#F2EDE5" opacity="1.000000" stroke="none" 
	d="
M405.868347,303.129486 
	C408.126343,301.771332 410.181763,300.541199 412.399536,299.213867 
	C412.407593,299.310730 412.789093,300.255432 412.488312,300.861481 
	C410.311768,305.246948 407.997345,309.563965 405.363281,313.508606 
	C405.096924,310.111206 405.193848,307.107880 405.290771,304.104523 
	C405.261200,303.753723 405.386200,303.471375 405.868347,303.129486 
z"/>
<path fill="#F2EDE5" opacity="1.000000" stroke="none" 
	d="
M405.000000,314.000000 
	C404.519196,318.287537 402.078369,321.057434 397.988983,323.436218 
	C397.350677,321.391266 396.887726,319.908020 396.143860,318.179871 
	C396.114655,317.414642 396.366364,316.894348 397.232635,316.185547 
	C400.231476,315.331329 402.615723,314.665680 405.000000,314.000000 
z"/>
<path fill="#F0EBE5" opacity="1.000000" stroke="none" 
	d="
M405.000000,313.557281 
	C402.615723,314.665680 400.231476,315.331329 397.473694,316.014252 
	C399.670074,312.212036 402.239960,308.392609 405.050293,304.338837 
	C405.193848,307.107880 405.096924,310.111206 405.000000,313.557281 
z"/>
<path fill="#2A2B3E" opacity="1.000000" stroke="none" 
	d="
M537.068604,410.181671 
	C540.021118,412.205688 542.947632,414.659851 547.115601,418.155060 
	C543.015564,418.155060 539.954224,418.155060 536.446045,418.065308 
	C536.346985,415.520966 536.694824,413.066376 537.068604,410.181671 
z"/>
<path fill="#2A2B3E" opacity="1.000000" stroke="none" 
	d="
M533.686157,417.697784 
	C520.638428,418.036102 507.281830,418.096161 493.464691,418.063843 
	C493.574402,417.670746 494.146057,417.105103 494.714752,417.108032 
	C507.602448,417.174255 520.489807,417.302734 533.686157,417.697784 
z"/>
<path fill="#2A2B3E" opacity="1.000000" stroke="none" 
	d="
M480.445801,417.417969 
	C483.899689,415.528839 487.640350,413.918854 491.693237,412.157440 
	C491.676941,413.734436 491.348450,415.462891 491.009857,417.571289 
	C487.577362,417.866547 484.154968,417.781830 480.445801,417.417969 
z"/>
<path fill="#2A2B3E" opacity="1.000000" stroke="none" 
	d="
M496.344543,375.669006 
	C496.015320,367.967957 495.952454,359.950317 495.976929,351.471741 
	C496.246490,359.124695 496.428741,367.238556 496.344543,375.669006 
z"/>
<path fill="#2A2B3E" opacity="1.000000" stroke="none" 
	d="
M493.256897,410.858765 
	C493.372253,409.300964 493.882721,407.679993 494.641602,405.777649 
	C494.477325,407.262695 494.064667,409.029114 493.256897,410.858765 
z"/>
<path fill="#2A2B3E" opacity="1.000000" stroke="none" 
	d="
M496.308136,214.764801 
	C496.017975,213.924698 495.963348,212.860916 495.994202,211.405060 
	C496.234375,212.189041 496.389038,213.365082 496.308136,214.764801 
z"/>
<path fill="#2A2B3E" opacity="1.000000" stroke="none" 
	d="
M496.285217,200.831848 
	C496.030365,200.545456 495.975372,200.105087 496.000671,199.339142 
	C496.215668,199.568344 496.350342,200.123093 496.285217,200.831848 
z"/>
<path fill="#2A2B3E" opacity="1.000000" stroke="none" 
	d="
M495.312958,402.892670 
	C495.183685,402.983704 495.089722,402.494965 495.167999,402.258606 
	C495.567841,402.236206 495.633148,402.496002 495.312958,402.892670 
z"/>
<path fill="#2A2B3E" opacity="1.000000" stroke="none" 
	d="
M536.204224,406.591858 
	C536.415588,406.625580 536.644409,406.974854 536.858887,407.650024 
	C536.636902,407.619751 536.429321,407.263580 536.204224,406.591858 
z"/>
<path fill="#2A2B3E" opacity="1.000000" stroke="none" 
	d="
M492.220581,411.865692 
	C492.152985,411.690735 492.299805,411.376312 492.691589,410.954773 
	C492.769348,411.140503 492.602173,411.433350 492.220581,411.865692 
z"/>
<path fill="#2A2B3E" opacity="1.000000" stroke="none" 
	d="
M288.085999,410.128387 
	C291.228424,412.258270 294.339478,414.837158 298.404968,418.207245 
	C289.302490,418.207245 281.111542,418.207245 272.460510,418.111450 
	C275.210815,417.676605 278.457275,416.864655 281.623291,417.106384 
	C286.725311,417.495911 288.684753,415.489777 288.085999,410.128387 
z"/>
<path fill="#2A2B3E" opacity="1.000000" stroke="none" 
	d="
M285.642029,265.338959 
	C285.960449,280.699829 286.016937,296.379852 285.987488,312.520264 
	C285.621643,312.399017 285.095490,311.816406 285.097809,311.235870 
	C285.158539,296.043152 285.274017,280.850616 285.642029,265.338959 
z"/>
<path fill="#2A2B3E" opacity="1.000000" stroke="none" 
	d="
M285.642609,349.339111 
	C285.958984,358.033264 286.013367,367.046417 285.982391,376.520081 
	C285.598450,371.635681 285.175690,366.293762 285.043671,360.944733 
	C284.950958,357.187592 285.254242,353.420685 285.642609,349.339111 
z"/>
<path fill="#2A2B3E" opacity="1.000000" stroke="none" 
	d="
M285.648285,240.336533 
	C285.967682,247.365677 286.023407,254.712830 285.992218,262.520111 
	C285.731720,255.538345 285.558167,248.096436 285.648285,240.336533 
z"/>
<path fill="#2A2B3E" opacity="1.000000" stroke="none" 
	d="
M285.640594,326.338318 
	C285.960052,332.032898 286.018066,338.046631 285.990021,344.520264 
	C285.729004,338.872620 285.554077,332.765076 285.640594,326.338318 
z"/>
<path fill="#2A2B3E" opacity="1.000000" stroke="none" 
	d="
M285.644043,200.337006 
	C285.966522,205.367172 286.026825,210.715317 285.999207,216.522552 
	C285.734833,211.539413 285.558380,206.097183 285.644043,200.337006 
z"/>
<path fill="#2A2B3E" opacity="1.000000" stroke="none" 
	d="
M285.647522,221.336121 
	C285.968262,226.034149 286.026428,231.049194 285.997375,236.522583 
	C285.735077,231.871674 285.560028,226.762390 285.647522,221.336121 
z"/>
<path fill="#2A2B3E" opacity="1.000000" stroke="none" 
	d="
M261.695862,417.719788 
	C257.636627,418.064880 253.275421,418.127747 248.457764,418.096893 
	C252.465515,417.814636 256.929718,417.626129 261.695862,417.719788 
z"/>
<path fill="#2A2B3E" opacity="1.000000" stroke="none" 
	d="
M285.708801,181.216003 
	C285.995789,181.767197 286.056122,182.509796 286.026245,183.616516 
	C285.784729,183.122894 285.633453,182.265167 285.708801,181.216003 
z"/>
<path fill="#2A2B3E" opacity="1.000000" stroke="none" 
	d="
M285.719147,193.168457 
	C285.973145,193.455566 286.027283,193.895554 285.996979,194.659790 
	C285.781433,194.429825 285.650360,193.875580 285.719147,193.168457 
z"/>
<path fill="#2A2B3E" opacity="1.000000" stroke="none" 
	d="
M247.297699,389.665405 
	C247.218887,389.456451 247.399353,389.275696 247.818146,389.074951 
	C247.908279,389.269897 247.741791,389.482758 247.297699,389.665405 
z"/>
<path fill="#2A2B3E" opacity="1.000000" stroke="none" 
	d="
M287.257050,406.555359 
	C287.486053,406.590576 287.711151,406.953064 287.918335,407.649231 
	C287.684631,407.616150 287.468903,407.249420 287.257050,406.555359 
z"/>
<path fill="#F8F3EE" opacity="1.000000" stroke="none" 
	d="
M83.465347,469.944336 
	C84.478386,468.907074 85.953941,467.949371 88.388069,466.369537 
	C85.388214,464.934875 82.852631,463.722229 80.611343,462.051392 
	C108.229073,461.618011 135.552521,461.662018 162.875961,461.663300 
	C209.526184,461.665466 256.176453,461.603638 302.826508,461.692810 
	C306.883026,461.700562 310.937775,462.628784 314.949097,463.460510 
	C314.600616,465.821625 314.296356,467.851593 313.992126,469.881592 
	C310.668640,469.931213 307.345184,470.023865 304.021729,470.024139 
	C230.657104,470.030212 157.292496,470.026093 83.465347,469.944336 
z"/>
<path fill="#EEEAE4" opacity="1.000000" stroke="none" 
	d="
M405.009460,485.260406 
	C407.392426,485.319946 408.930756,484.889526 409.643311,482.047974 
	C415.597748,458.303680 432.629669,447.339111 455.244080,443.056213 
	C458.802948,442.382202 462.479309,442.328613 466.285522,442.294800 
	C463.637512,444.528870 460.805328,446.456268 456.933411,449.091248 
	C465.000214,449.255219 470.070831,452.229736 470.727722,456.611603 
	C464.078247,457.457825 457.709137,457.685455 451.605499,459.077271 
	C440.360199,461.641571 430.736664,467.107422 423.722870,477.021332 
	C425.130951,478.181854 426.234589,479.091461 427.478851,480.116943 
	C435.481995,468.622650 446.932587,464.318481 460.012482,463.209717 
	C462.234039,463.797028 464.455597,464.384338 468.102203,465.348389 
	C465.771790,467.204102 464.445068,468.260590 463.059937,469.655518 
	C461.044586,470.325256 459.084991,470.641968 457.131409,470.992157 
	C455.360474,471.309540 453.596100,471.663544 451.848297,471.997711 
	C451.639954,472.732635 451.398376,473.187744 451.398438,473.642853 
	C451.399475,484.364349 448.850647,486.906006 437.846344,486.936493 
	C427.205597,486.966003 416.564636,486.920532 405.460205,486.833130 
	C404.999420,486.358826 405.002197,485.959412 405.009460,485.260406 
z"/>
<path fill="#F0EBE5" opacity="1.000000" stroke="none" 
	d="
M314.387939,469.971466 
	C314.296356,467.851593 314.600616,465.821625 315.405670,463.382751 
	C319.599335,463.004578 323.292145,463.035248 327.269226,463.303375 
	C338.784271,465.442505 347.917633,470.884766 354.964630,480.158081 
	C355.428467,481.704865 355.874054,482.914459 356.433167,484.069061 
	C356.884918,485.001831 357.473572,485.868378 358.001495,486.764282 
	C352.880737,486.821075 347.757751,487.000519 342.639771,486.905975 
	C334.931671,486.763641 329.957214,484.018372 331.005249,474.821350 
	C331.096497,474.020660 331.017334,473.200562 331.017334,471.836090 
	C327.496796,471.306580 324.131439,470.800415 320.237488,469.937317 
	C319.143494,469.700409 318.578033,469.820404 318.012573,469.940430 
	C316.936310,469.980743 315.860016,470.021057 314.387939,469.971466 
z"/>
<path fill="#F2EDE5" opacity="1.000000" stroke="none" 
	d="
M358.449524,486.845215 
	C357.473572,485.868378 356.884918,485.001831 356.433167,484.069061 
	C355.874054,482.914459 355.428467,481.704865 355.226440,479.972626 
	C356.279327,478.305511 357.039642,477.184814 358.124939,476.009155 
	C359.074432,474.117126 354.168030,465.290680 352.075562,464.007202 
	C348.092590,461.564270 344.224396,458.934174 340.317719,456.387726 
	C342.357727,453.133179 350.464813,454.111053 352.971924,457.048462 
	C356.584686,461.281281 360.884644,464.935699 364.995972,468.723358 
	C365.453766,469.145142 366.591858,468.828461 367.645477,469.050720 
	C368.274841,470.158325 368.673218,471.069519 368.804718,472.209778 
	C369.775116,477.283081 369.737793,482.079437 367.997589,486.811768 
	C364.964233,486.849884 361.930878,486.888000 358.449524,486.845215 
z"/>
<path fill="#F0EBE5" opacity="1.000000" stroke="none" 
	d="
M368.409698,486.888641 
	C369.737793,482.079437 369.775116,477.283081 369.088409,472.427673 
	C370.784485,476.551727 371.929962,480.686981 373.050659,485.149292 
	C373.016388,485.913605 373.006989,486.350830 372.997589,486.788086 
	C371.605652,486.847229 370.213745,486.906372 368.409698,486.888641 
z"/>
<path fill="#EEEAE4" opacity="1.000000" stroke="none" 
	d="
M373.393677,486.865784 
	C373.006989,486.350830 373.016388,485.913605 373.357056,485.299011 
	C374.777771,485.228790 375.867249,485.335907 376.956726,485.443024 
	C376.965759,485.660004 376.974792,485.876984 376.992126,486.419586 
	C375.930206,486.811340 374.859985,486.877441 373.393677,486.865784 
z"/>
<path fill="#F8F3EE" opacity="1.000000" stroke="none" 
	d="
M318.338135,470.031372 
	C318.578033,469.820404 319.143494,469.700409 319.855103,469.794891 
	C319.555389,470.047028 319.109558,470.084686 318.338135,470.031372 
z"/>
<path fill="#3D3F4D" opacity="1.000000" stroke="none" 
	d="
M377.122742,485.170013 
	C375.867249,485.335907 374.777771,485.228790 373.381897,484.971924 
	C371.929962,480.686981 370.784485,476.551727 369.355286,472.198578 
	C368.673218,471.069519 368.274841,470.158325 367.520142,468.718567 
	C360.543518,457.302002 351.168335,449.935272 338.991699,446.149353 
	C337.790192,445.707855 336.588715,445.266357 335.143921,444.616577 
	C336.384155,443.603119 337.867676,442.797943 339.731354,441.938171 
	C340.111511,441.883545 340.049713,441.907806 340.108398,442.266357 
	C341.834717,443.066223 343.502411,443.507477 345.170074,443.948730 
	C346.129944,444.047577 347.248657,443.858673 348.026245,444.287811 
	C363.535797,452.846405 374.622955,464.812073 377.492279,482.998840 
	C377.588013,483.605743 377.363800,484.263153 377.122742,485.170013 
z"/>
<path fill="#F2EDE5" opacity="1.000000" stroke="none" 
	d="
M297.695312,431.806610 
	C305.766541,425.577240 312.340973,425.664459 316.156982,432.451477 
	C309.852600,434.322540 303.870087,433.113312 297.695312,431.806610 
z"/>
<path fill="#F2EDE5" opacity="1.000000" stroke="none" 
	d="
M245.053223,435.813629 
	C243.924927,436.255157 242.851562,436.338715 241.389374,436.300140 
	C240.496231,434.806122 239.991898,433.434204 239.241394,431.392670 
	C243.053970,430.913696 246.691467,430.456696 250.328964,429.999725 
	C250.442261,430.433807 250.555573,430.867889 250.668869,431.301971 
	C248.815292,432.686523 246.961731,434.071075 245.053223,435.813629 
z"/>
<path fill="#F2EDE5" opacity="1.000000" stroke="none" 
	d="
M381.433258,475.665710 
	C382.298431,474.134979 383.274536,472.944305 384.250641,471.753601 
	C384.814484,471.995300 385.378296,472.236969 385.942108,472.478668 
	C385.619659,474.522675 385.297211,476.566681 384.974762,478.610718 
	C384.536530,478.681030 384.098328,478.751373 383.660126,478.821716 
	C382.954803,477.883087 382.249481,476.944427 381.433258,475.665710 
z"/>
<path fill="#23273D" opacity="1.000000" stroke="none" 
	d="
M345.011993,443.614349 
	C343.502411,443.507477 341.834717,443.066223 340.122284,442.236206 
	C341.669647,442.325012 343.261780,442.802490 345.011993,443.614349 
z"/>
<path fill="#F2EDE5" opacity="1.000000" stroke="none" 
	d="
M494.358643,432.431519 
	C493.944061,432.323456 493.692932,432.059570 493.441803,431.795654 
	C493.551117,431.691864 493.750000,431.491791 493.756836,431.498169 
	C494.022858,431.745636 494.271332,432.011902 494.358643,432.431519 
z"/>
<path fill="#3D3F4D" opacity="1.000000" stroke="none" 
	d="
M320.003784,403.020630 
	C319.874451,403.380829 319.547302,403.556641 319.220154,403.732483 
	C319.166626,403.475830 319.113068,403.219177 319.220642,402.731689 
	C319.523163,402.612671 319.664581,402.724487 320.003784,403.020630 
z"/>
<path fill="#222A3C" opacity="1.000000" stroke="none" 
	d="
M326.984985,463.065948 
	C323.292145,463.035248 319.599335,463.004578 315.449921,463.051666 
	C310.937775,462.628784 306.883026,461.700562 302.826508,461.692810 
	C256.176453,461.603638 209.526184,461.665466 162.875961,461.663300 
	C135.552521,461.662018 108.229073,461.618011 80.450005,461.715881 
	C76.625893,461.785889 73.257408,461.733185 69.192574,461.740234 
	C68.331009,461.862122 68.165802,461.924286 68.000587,461.986481 
	C67.671455,460.590973 67.342323,459.195496 67.237839,457.298889 
	C67.717941,456.644592 67.920029,456.438934 68.068741,456.180847 
	C133.125397,456.211823 198.182114,456.201141 263.238678,456.302155 
	C280.205292,456.328522 297.171356,456.702820 314.816833,456.936646 
	C315.660797,456.917206 315.825684,456.878387 315.990601,456.839569 
	C317.812012,457.100372 319.633423,457.361206 322.090759,457.731201 
	C323.146301,457.836670 323.565948,457.832947 323.985596,457.829224 
	C324.721649,457.975464 325.457703,458.121674 326.841553,458.465912 
	C329.317688,459.137024 331.146088,459.610107 332.757874,460.349487 
	C330.689209,461.432526 328.837097,462.249237 326.984985,463.065948 
z"/>
<path fill="#F0EBE5" opacity="1.000000" stroke="none" 
	d="
M332.974457,460.083160 
	C331.146088,459.610107 329.317688,459.137024 327.216980,458.441315 
	C325.254669,455.975433 323.564697,453.732178 321.835876,451.437439 
	C323.748535,449.830017 326.056152,447.890656 328.554291,445.791168 
	C331.754425,446.389923 334.706970,452.574615 338.973938,446.530212 
	C351.168335,449.935272 360.543518,457.302002 367.289154,468.522095 
	C366.591858,468.828461 365.453766,469.145142 364.995972,468.723358 
	C360.884644,464.935699 356.584686,461.281281 352.971924,457.048462 
	C350.464813,454.111053 342.357727,453.133179 340.317719,456.387726 
	C344.224396,458.934174 348.092590,461.564270 352.075562,464.007202 
	C354.168030,465.290680 359.074432,474.117126 357.834656,475.844849 
	C351.010010,467.618073 342.963867,462.345581 332.974457,460.083160 
z"/>
<path fill="#EEEAE4" opacity="1.000000" stroke="none" 
	d="
M313.242096,442.288147 
	C314.392639,442.023224 315.780762,442.004089 317.573303,442.092987 
	C316.478394,442.312012 314.979034,442.423004 313.242096,442.288147 
z"/>
<path fill="#F8F3EE" opacity="1.000000" stroke="none" 
	d="
M68.098984,462.140198 
	C68.165802,461.924286 68.331009,461.862122 68.750923,461.872314 
	C68.736214,462.061066 68.466797,462.177490 68.098984,462.140198 
z"/>
<path fill="#F0EBE5" opacity="1.000000" stroke="none" 
	d="
M323.730286,457.634583 
	C323.565948,457.832947 323.146301,457.836670 322.471802,457.648132 
	C322.636292,457.450562 323.055634,457.445251 323.730286,457.634583 
z"/>
<path fill="#F0EBE5" opacity="1.000000" stroke="none" 
	d="
M315.898926,456.703674 
	C315.825684,456.878387 315.660797,456.917206 315.255310,456.874451 
	C315.220123,456.446686 315.484314,456.371643 315.898926,456.703674 
z"/>
<path fill="#6E747B" opacity="1.000000" stroke="none" 
	d="
M67.780785,456.114990 
	C67.920029,456.438934 67.717941,456.644592 67.281258,456.919434 
	C67.230957,456.710388 67.361893,456.379761 67.780785,456.114990 
z"/>
<path fill="#F0EBE5" opacity="1.000000" stroke="none" 
	d="
M327.270325,443.357971 
	C327.432434,443.154938 327.850800,443.147278 328.527405,443.325623 
	C328.365906,443.525513 327.946259,443.539398 327.270325,443.357971 
z"/>
<path fill="#F2EDE5" opacity="1.000000" stroke="none" 
	d="
M452.661011,245.694427 
	C451.752167,246.944229 451.012207,247.874664 449.954193,249.205032 
	C448.842712,243.180649 452.294922,237.047821 460.036255,232.675980 
	C459.547729,234.423233 459.410187,236.387405 458.493805,237.870178 
	C456.853149,240.524673 454.743530,242.889282 452.661011,245.694427 
z"/>
<path fill="#F2EDE5" opacity="1.000000" stroke="none" 
	d="
M460.789612,224.606628 
	C462.321808,224.233078 463.849243,223.902328 467.024811,223.214722 
	C465.185974,226.140503 463.987427,228.047562 462.788849,229.954636 
	C462.358643,229.827850 461.928406,229.701065 461.498199,229.574280 
	C461.285522,228.201019 461.072815,226.827744 460.781128,225.039948 
	C460.702087,224.625412 460.784851,224.649445 460.789612,224.606628 
z"/>
<path fill="#F2EDE5" opacity="1.000000" stroke="none" 
	d="
M441.600586,261.506104 
	C436.854370,259.246124 440.007324,257.984253 441.325745,256.436066 
	C441.861969,256.519470 442.398193,256.602844 442.934418,256.686218 
	C442.597992,258.231506 442.261566,259.776764 441.600586,261.506104 
z"/>
<path fill="#5C606A" opacity="1.000000" stroke="none" 
	d="
M460.428040,463.124695 
	C446.932587,464.318481 435.481995,468.622650 427.478851,480.116943 
	C426.234589,479.091461 425.130951,478.181854 423.722870,477.021332 
	C430.736664,467.107422 440.360199,461.641571 451.605499,459.077271 
	C457.709137,457.685455 464.078247,457.457825 471.025085,456.641968 
	C472.487061,456.668060 473.251526,456.757294 474.015991,456.846527 
	C473.348816,458.256287 472.681610,459.666077 472.047852,461.423157 
	C468.335388,462.193542 464.589478,462.616608 460.428040,463.124695 
z"/>
<path fill="#F7F1EA" opacity="1.000000" stroke="none" 
	d="
M474.421906,456.770905 
	C473.251526,456.757294 472.487061,456.668060 471.425201,456.548462 
	C470.070831,452.229736 465.000214,449.255219 456.933411,449.091248 
	C460.805328,446.456268 463.637512,444.528870 466.723724,442.368958 
	C474.347961,441.989624 481.718170,441.842865 489.546143,441.589081 
	C509.030853,441.524292 528.057800,441.566498 547.984802,441.616760 
	C558.261475,441.546356 567.638062,441.467926 577.014709,441.389465 
	C582.413574,441.483215 587.812500,441.576965 593.614258,441.556885 
	C603.472046,441.553101 612.927063,441.755493 622.382019,441.755737 
	C649.952576,441.756470 677.523071,441.676422 705.550171,441.746399 
	C704.880554,444.872162 703.748169,447.877258 702.630676,450.887878 
	C702.075317,452.384277 701.547363,453.890839 701.007690,455.791321 
	C694.193542,456.246918 687.378601,456.354126 680.563660,456.353180 
	C616.809082,456.344330 553.054443,456.308197 489.299835,456.312408 
	C484.475830,456.312714 479.651825,456.561829 474.421906,456.770905 
z"/>
<path fill="#2A2B3E" opacity="1.000000" stroke="none" 
	d="
M576.833557,441.063843 
	C567.638062,441.467926 558.261475,441.546356 548.434204,441.484528 
	C548.306274,440.974854 548.632751,440.279816 548.950989,440.283539 
	C558.185303,440.392273 567.418762,440.570831 576.833557,441.063843 
z"/>
<path fill="#6E747B" opacity="1.000000" stroke="none" 
	d="
M485.405670,439.685150 
	C485.332031,439.576050 485.591919,439.499420 485.591919,439.499420 
	C485.591919,439.499420 485.479309,439.794250 485.405670,439.685150 
z"/>
<path fill="#3D3F4D" opacity="1.000000" stroke="none" 
	d="
M332.757874,460.349487 
	C342.963867,462.345581 351.010010,467.618073 357.509705,475.899841 
	C357.039642,477.184814 356.279327,478.305511 355.257202,479.611633 
	C347.917633,470.884766 338.784271,465.442505 327.269226,463.303375 
	C328.837097,462.249237 330.689209,461.432526 332.757874,460.349487 
z"/>
</svg>